<svg width="30" height="30" viewBox="0 0 30 30" fill="none" xmlns="http://www.w3.org/2000/svg">
<path fill-rule="evenodd" clip-rule="evenodd" d="M10.0916 1.36377H19.3643H19.6371H20.728L27.0007 8.18195V9.27286V9.81831V22.3637C27.0007 23.87 25.7797 25.091 24.2734 25.091H22.9098V25.9092C22.9098 27.4154 21.6888 28.6365 20.1825 28.6365H6.00071C4.49448 28.6365 3.27344 27.4154 3.27344 25.9092V7.6365C3.27344 6.13026 4.49448 4.90922 6.00071 4.90922H7.36435V4.09104C7.36435 2.58481 8.58539 1.36377 10.0916 1.36377ZM25.6371 8.18195L20.728 3.00013V6.81831C20.728 7.57143 21.3385 8.18195 22.0916 8.18195H25.6371ZM10.0916 3.00013H19.3643V7.09104C19.3643 8.59727 20.5854 9.81831 22.0916 9.81831H25.6371V22.091C25.6371 22.8441 25.0266 23.4547 24.2734 23.4547H10.0916C9.3385 23.4547 8.72798 22.8441 8.72798 22.091V4.36377C8.72798 3.61065 9.3385 3.00013 10.0916 3.00013ZM7.36435 6.54559H6.00071C5.24759 6.54559 4.63707 7.15611 4.63707 7.90922V25.6365C4.63707 26.3896 5.24759 27.0001 6.00071 27.0001H20.1825C20.9356 27.0001 21.5462 26.3896 21.5462 25.6365V25.091H10.0916C8.58539 25.091 7.36435 23.87 7.36435 22.3637V6.54559ZM13.3643 13.3637C12.9125 13.3637 12.5462 13.7301 12.5462 14.1819C12.5462 14.6338 12.9125 15.0001 13.3643 15.0001H21.0007C21.4526 15.0001 21.8189 14.6338 21.8189 14.1819C21.8189 13.7301 21.4526 13.3637 21.0007 13.3637H13.3643ZM12.5462 18.2728C12.5462 17.821 12.9125 17.4547 13.3643 17.4547H21.0007C21.4526 17.4547 21.8189 17.821 21.8189 18.2728C21.8189 18.7247 21.4526 19.091 21.0007 19.091H13.3643C12.9125 19.091 12.5462 18.7247 12.5462 18.2728Z" fill="url(#paint0_linear_149_203)"/>
<defs>
<linearGradient id="paint0_linear_149_203" x1="15.1371" y1="1.36377" x2="15.1371" y2="28.6365" gradientUnits="userSpaceOnUse">
<stop stop-color="#AF8B5F"/>
<stop offset="1" stop-color="#EFD39B"/>
</linearGradient>
</defs>
</svg>
