<svg width="57" height="87" viewBox="0 0 57 87" fill="none" xmlns="http://www.w3.org/2000/svg">
<g clip-path="url(#clip0_225_57)">
<path d="M16.261 37.7871C16.261 37.7871 23.989 35.5331 27.048 37.7871C28.7429 39.0676 30.5801 40.1481 32.523 41.0071C32.523 41.0071 29.623 48.8961 16.262 48.8961C2.901 48.8961 0 41.0071 0 41.0071C1.94254 40.148 3.77938 39.0675 5.474 37.7871C8.533 35.5331 16.261 37.7871 16.261 37.7871Z" fill="#E8C981"/>
<path d="M13.2033 70.229C13.058 70.2229 12.9207 70.1609 12.82 70.0559C12.7193 69.9509 12.6631 69.811 12.6631 69.6655C12.6631 69.5201 12.7193 69.3802 12.82 69.2752C12.9207 69.1702 13.058 69.1082 13.2033 69.102C21.0283 69.102 31.6703 66.445 38.0783 58.991C43.5843 52.583 50.3783 43.342 52.9223 36.579C55.2733 30.332 55.8523 0.852045 55.8523 0.547045C55.855 0.39984 55.9158 0.259663 56.0215 0.157161C56.1272 0.0546594 56.2691 -0.00182862 56.4163 4.51718e-05H56.4323C56.5069 0.000482851 56.5805 0.016035 56.6489 0.0457615C56.7172 0.0754879 56.7788 0.118771 56.83 0.17299C56.8811 0.22721 56.9207 0.291239 56.9464 0.361205C56.9721 0.431172 56.9833 0.50562 56.9793 0.580045C56.9633 1.80405 56.3993 30.559 53.9683 36.98C51.3763 43.871 44.4853 53.241 38.9303 59.73C35.7168 63.315 31.669 66.0524 27.1453 67.7C22.6886 69.377 17.9652 70.2338 13.2033 70.229Z" fill="#E8C981"/>
<path d="M44.4372 86.8101C44.3046 86.8128 44.1757 86.7667 44.0748 86.6806C43.974 86.5946 43.9083 86.4744 43.8902 86.3431C43.7612 85.6181 43.6002 84.7651 43.4392 83.8641C42.5052 78.8081 41.1042 71.1771 41.7972 66.9911C42.5862 62.2251 43.8742 51.9691 43.8902 51.8571C43.9094 51.7097 43.9864 51.5761 44.1041 51.4855C44.1625 51.4407 44.229 51.4077 44.3001 51.3886C44.3711 51.3695 44.4452 51.3646 44.5182 51.3741C44.5911 51.3836 44.6615 51.4074 44.7252 51.4441C44.789 51.4808 44.8449 51.5297 44.8897 51.5881C44.9346 51.6464 44.9675 51.7129 44.9866 51.784C45.0057 51.855 45.0107 51.9291 45.0012 52.0021C44.9852 52.1021 43.7012 62.3871 42.9082 67.1851C42.2482 71.1781 43.6322 78.6851 44.5502 83.6561C44.7112 84.5561 44.8722 85.4271 45.0012 86.1561C45.0143 86.2292 45.0125 86.3042 44.9959 86.3766C44.9793 86.449 44.9483 86.5173 44.9047 86.5774C44.8611 86.6376 44.8058 86.6883 44.7421 86.7265C44.6785 86.7648 44.6077 86.7898 44.5342 86.8001C44.5032 86.8114 44.4698 86.8148 44.4372 86.8101Z" fill="#E8C981"/>
</g>
<defs>
<clipPath id="clip0_225_57">
<rect width="56.98" height="86.813" fill="white"/>
</clipPath>
</defs>
</svg>
