<svg width="130" height="130" viewBox="0 0 130 130" fill="none" xmlns="http://www.w3.org/2000/svg">
<path d="M113.583 45.7945C102.897 16.8878 68.2052 29.8573 64.9979 44.2914C60.584 28.9087 26.7454 17.4321 16.4185 45.8148C4.91959 77.4251 60.9861 105.8 64.9979 110.447C69.0055 106.754 125.076 76.8909 113.583 45.7945Z" fill="url(#paint0_linear_232_362)"/>
<path d="M121.879 37.5494C120.623 33.7719 118.557 30.3141 115.826 27.4176C113.143 24.5885 109.883 22.3691 106.267 20.9094C104.52 20.1992 102.705 19.669 100.85 19.3271C99.9337 19.1625 99.0096 19.0459 98.0813 18.9777C97.1571 18.8992 96.2286 18.8856 95.3025 18.9371L97.8172 20.099C98.6419 20.4849 99.4605 20.8607 100.261 21.273C101.865 22.0734 103.421 22.9244 104.914 23.8527C107.894 25.7032 110.62 27.836 112.987 30.3466C115.359 32.8491 117.35 35.7152 119.009 38.8759C119.842 40.4501 120.579 42.1076 121.266 43.8199C121.609 44.671 121.938 45.5465 122.257 46.4341L123.218 49.1215C123.326 48.1607 123.358 47.1877 123.35 46.2188C123.304 43.271 122.808 40.3475 121.879 37.5494M125.893 32.0752C125.782 30.6147 125.511 29.1708 125.087 27.769C124.234 24.952 122.743 22.3696 120.73 20.2221C118.717 18.0747 116.236 16.42 113.48 15.3865C112.168 14.9014 110.806 14.5622 109.42 14.3749C108.734 14.2802 108.044 14.2287 107.352 14.2205C106.66 14.2082 105.968 14.251 105.282 14.3485C105.893 14.7019 106.493 15.0229 107.084 15.3438C107.679 15.6688 108.254 15.9877 108.825 16.3188C109.968 16.9627 111.067 17.6269 112.123 18.3318C114.224 19.7455 116.141 21.2934 117.821 23.0748C119.522 24.8946 120.996 26.9142 122.21 29.0893C122.846 30.2044 123.431 31.3684 123.996 32.5912C124.28 33.2026 124.546 33.8221 124.825 34.4619C125.101 35.0896 125.369 35.7376 125.672 36.3977C125.814 35.6787 125.887 34.9637 125.913 34.2446C125.951 33.5217 125.945 32.7972 125.893 32.0752M8.73674 43.8199C9.42127 42.1035 10.1627 40.4501 10.9914 38.8759C12.651 35.7112 14.6456 32.8471 17.0161 30.3466C19.3805 27.838 22.1064 25.7032 25.0883 23.8487C26.5813 22.9265 28.1352 22.0734 29.7419 21.273C30.5442 20.8607 31.3628 20.4849 32.1875 20.099L34.7022 18.9371C33.7755 18.8863 32.8465 18.8985 31.9214 18.9737C30.9952 19.0366 30.075 19.1666 29.1549 19.3271C27.3145 19.6643 25.4986 20.1924 23.7355 20.9094C20.1193 22.3683 16.8593 24.5879 14.1764 27.4176C11.4441 30.3131 9.3781 33.7712 8.1233 37.5494C7.19221 40.3469 6.69622 43.2708 6.65267 46.2188C6.64455 47.1898 6.67705 48.1607 6.78877 49.1215L7.74549 46.4301C8.06439 45.5465 8.39346 44.6669 8.73674 43.8199M12.1797 23.0727C13.8616 21.2913 15.777 19.7435 17.8774 18.3298C18.9316 17.6229 20.0305 16.9607 21.1761 16.3168C21.7469 15.9857 22.3258 15.6668 22.9169 15.3418C23.508 15.0209 24.1072 14.6959 24.7186 14.3424C24.0329 14.2474 23.3409 14.2059 22.6488 14.2185C21.9569 14.2247 21.2661 14.2763 20.581 14.3729C19.1938 14.5604 17.8315 14.8996 16.5185 15.3844C13.7978 16.4046 11.3456 18.0315 9.34814 20.1416C7.29908 22.3055 5.78227 24.917 4.91799 27.769C4.4907 29.1688 4.21957 30.6117 4.10955 32.0712C4.05776 32.7945 4.04962 33.5203 4.08517 34.2446C4.11361 34.9596 4.1847 35.6787 4.32892 36.3977C4.63158 35.7376 4.90174 35.0896 5.17595 34.4619C5.45221 33.8221 5.72236 33.2026 6.00674 32.5912C6.56939 31.3684 7.15439 30.2044 7.79017 29.0852C9.00353 26.9101 10.4776 24.891 12.1797 23.0727M15.7811 82.2491L15.4967 82.564C16.557 85.6129 18.0967 88.1337 19.807 90.4615C21.4869 92.8259 23.4024 94.9201 25.462 96.8599C27.5319 98.7876 29.7358 100.567 32.1794 102.076C34.5945 103.624 37.1763 104.981 40.2313 105.814L40.5156 105.501C36.5141 101.489 32.3602 97.6501 28.2916 93.7155C24.1174 89.8968 20.0264 85.9907 15.7811 82.2491M7.33111 88.2799L7.04674 88.5927C8.45642 91.9727 10.3455 94.8185 12.4031 97.4774C14.4324 100.165 16.6972 102.594 19.1042 104.861C21.5235 107.114 24.0767 109.222 26.8697 111.06C29.6342 112.933 32.5633 114.621 35.9677 115.781L36.252 115.468C31.5538 110.8 26.7031 106.301 21.9338 101.717C17.0608 97.2438 12.2731 92.6755 7.33111 88.2799M104.541 96.8619C106.6 94.9221 108.516 92.8279 110.196 90.4635C111.906 88.1357 113.446 85.6149 114.504 82.566L114.22 82.2512C109.976 85.9927 105.883 89.8988 101.711 93.7196C97.6405 97.6541 93.4866 101.493 89.485 105.505L89.7714 105.818C92.8264 104.985 95.4061 103.628 97.8213 102.08C100.267 100.569 102.471 98.7896 104.541 96.8619ZM108.069 101.717C103.3 106.301 98.453 110.8 93.7527 115.468L94.033 115.781C97.4394 114.621 100.368 112.933 103.131 111.06C105.922 109.224 108.475 107.116 110.898 104.861C113.305 102.594 115.57 100.165 117.598 97.4774C119.655 94.8185 121.544 91.9727 122.954 88.5927L122.67 88.2799C117.73 92.6755 112.942 97.2438 108.069 101.717" fill="url(#paint1_linear_232_362)"/>
<defs>
<linearGradient id="paint0_linear_232_362" x1="65.0001" y1="28.4351" x2="65.0001" y2="110.447" gradientUnits="userSpaceOnUse">
<stop stop-color="#AF8B5F"/>
<stop offset="1" stop-color="#EFD39B"/>
</linearGradient>
<linearGradient id="paint1_linear_232_362" x1="65.0005" y1="14.2163" x2="65.0005" y2="115.781" gradientUnits="userSpaceOnUse">
<stop stop-color="#AF8B5F"/>
<stop offset="1" stop-color="#EFD39B"/>
</linearGradient>
</defs>
</svg>
