<svg width="12" height="12" viewBox="0 0 12 12" fill="none" xmlns="http://www.w3.org/2000/svg">
<path fill-rule="evenodd" clip-rule="evenodd" d="M5.04616 10.7344L5.04617 10.7344C3.13343 9.57586 1.97987 8.36188 1.31053 7.21782C0.636055 6.06497 0.5 5.0627 0.5 4.41119C0.5 2.49951 2.08065 1 3.96739 1C4.81511 1 5.5173 1.35335 6 1.68769C6.4827 1.35335 7.18489 1 8.03261 1C9.91935 1 11.5 2.49951 11.5 4.41119C11.5 5.0627 11.3639 6.06497 10.6895 7.21782C10.0201 8.36188 8.86657 9.57586 6.95383 10.7344L6.94823 10.7378L6.94822 10.7378C6.66141 10.9097 6.33343 11 6 11C5.66657 11 5.33859 10.9097 5.05178 10.7378L5.04616 10.7344ZM7.08627 2.69482C6.4404 3.04878 6 3.63016 6 3.63016C6 3.63016 5.5596 3.04878 4.91373 2.69482C4.63107 2.53992 4.30907 2.42857 3.96739 2.42857C2.84498 2.42857 1.93478 3.31615 1.93478 4.41119C1.93478 5.29516 2.29049 7.39314 5.79186 9.51394C5.85458 9.55154 5.92658 9.57143 6 9.57143C6.07342 9.57143 6.14542 9.55154 6.20814 9.51394C9.70951 7.39314 10.0652 5.29516 10.0652 4.41119C10.0652 3.31615 9.15502 2.42857 8.03261 2.42857C7.69093 2.42857 7.36893 2.53992 7.08627 2.69482Z" fill="#403935"/>
</svg>
