<svg width="81" height="87" viewBox="0 0 81 87" fill="none" xmlns="http://www.w3.org/2000/svg">
<g clip-path="url(#clip0_225_21)">
<path d="M0.520608 81.2276H0.460917C0.325728 81.2135 0.201637 81.1464 0.115744 81.041C0.0298508 80.9357 -0.0108643 80.8006 0.00249109 80.6653C0.0168169 80.546 1.24645 68.406 3.25923 61.9666C4.47334 58.1022 7.95213 54.8156 10.7504 52.1772C12.497 50.5334 14.1552 48.979 14.1552 48.1803C14.4314 45.3671 14.9506 42.5831 15.7072 39.8594C12.43 36.9287 10.3801 32.8689 9.9673 28.4919C9.80751 26.7363 9.96276 24.9663 10.4257 23.2653C8.55637 21.227 7.25005 18.7369 6.63535 16.0404C5.69249 12.8025 5.30222 9.42884 5.48093 6.06122C5.49074 5.92571 5.55399 5.79964 5.65675 5.71076C5.75951 5.62188 5.89338 5.57746 6.02889 5.58728C6.1644 5.59709 6.29047 5.66034 6.37935 5.7631C6.46823 5.86587 6.51265 5.99973 6.50283 6.13524C6.05873 12.3825 8.36877 20.2892 11.3438 22.7019C11.4289 22.7683 11.4906 22.8601 11.5198 22.9641C11.549 23.0681 11.5442 23.1786 11.5061 23.2797C10.9923 24.9456 10.8161 26.6973 10.988 28.4322C11.4088 32.6385 13.4279 36.5228 16.6288 39.284C16.6956 39.3506 16.7443 39.4331 16.7702 39.5238C16.7961 39.6145 16.7984 39.7103 16.7768 39.8021C16.0219 42.5383 15.4893 45.3309 15.1843 48.1529C15.1843 49.3968 13.6144 50.8772 11.4536 52.9055C8.74363 55.4662 5.36513 58.6358 4.24294 62.2471C2.27433 68.6137 1.04469 80.6319 1.03037 80.7513C1.02359 80.8812 0.966672 81.0035 0.871601 81.0923C0.77653 81.1812 0.65071 81.2297 0.520608 81.2276V81.2276Z" fill="#E8C981"/>
<path d="M10.3213 7.55483C10.2581 7.5558 10.1963 7.53601 10.1454 7.49849C10.0945 7.46097 10.0574 7.40779 10.0396 7.3471C9.9059 6.903 9.80084 6.50307 9.71369 6.16283C9.69596 6.08621 9.70939 6.00568 9.75103 5.93897C9.79268 5.87225 9.85911 5.8248 9.93574 5.80707C10.0124 5.78934 10.0929 5.80278 10.1596 5.84442C10.2263 5.88606 10.2738 5.9525 10.2915 6.02912C10.3806 6.36976 10.4841 6.75457 10.6019 7.18355C10.6131 7.22148 10.6166 7.26128 10.6122 7.3006C10.6078 7.33991 10.5955 7.37795 10.5762 7.41245C10.5568 7.44695 10.5307 7.47722 10.4995 7.50147C10.4682 7.52571 10.4324 7.54345 10.3942 7.55363L10.3213 7.55483Z" fill="#E8C981"/>
<path d="M7.01972 77.5567H7.00539C6.92793 77.5501 6.85583 77.5144 6.80357 77.4568C6.75132 77.3993 6.72277 77.3241 6.72365 77.2463C6.73798 77.084 6.7535 76.9204 6.76782 76.7688C6.77174 76.7296 6.78334 76.6916 6.80196 76.6569C6.82058 76.6221 6.84586 76.5914 6.87634 76.5665C6.90683 76.5415 6.94193 76.5229 6.97964 76.5115C7.01735 76.5001 7.05693 76.4963 7.09612 76.5002C7.13532 76.5041 7.17336 76.5157 7.20807 76.5343C7.24278 76.5529 7.27348 76.5782 7.29842 76.6087C7.32336 76.6392 7.34206 76.6743 7.35344 76.712C7.36482 76.7497 7.36865 76.7893 7.36473 76.8285C7.35041 76.9765 7.33489 77.1389 7.32056 77.2869C7.31235 77.361 7.27713 77.4295 7.22163 77.4792C7.16614 77.529 7.09426 77.5566 7.01972 77.5567V77.5567ZM7.30146 75.2885H7.25729C7.21897 75.2824 7.18226 75.2687 7.14934 75.2482C7.11642 75.2277 7.08798 75.2008 7.06569 75.169C7.04341 75.1373 7.02775 75.1013 7.01965 75.0634C7.01154 75.0255 7.01116 74.9863 7.01853 74.9482C7.12239 74.3513 7.25729 73.7639 7.40294 73.1718C7.41064 73.1328 7.42626 73.0957 7.44884 73.063C7.47141 73.0302 7.50046 73.0024 7.53418 72.9813C7.5679 72.9602 7.60559 72.9463 7.64492 72.9403C7.68426 72.9343 7.7244 72.9364 7.76287 72.9466C7.80134 72.9567 7.83733 72.9746 7.86862 72.9992C7.89991 73.0237 7.92583 73.0545 7.94479 73.0894C7.96375 73.1244 7.97535 73.1629 7.97886 73.2025C7.98237 73.2422 7.97773 73.2821 7.96523 73.3198C7.81719 73.8977 7.68348 74.4898 7.59514 75.0664C7.57563 75.1298 7.53688 75.1856 7.48427 75.226C7.43165 75.2665 7.36777 75.2895 7.30146 75.292V75.2885ZM8.18966 71.7941C8.15949 71.7966 8.12918 71.7917 8.10132 71.7798C8.02854 71.7537 7.96831 71.7011 7.93268 71.6325C7.89704 71.5638 7.88862 71.4843 7.90911 71.4097C8.10132 70.8475 8.30904 70.2696 8.53109 69.6918C8.56333 69.6233 8.62059 69.5698 8.6911 69.5422C8.7616 69.5146 8.84 69.5151 8.91017 69.5435C8.98034 69.5719 9.03696 69.6262 9.06837 69.6951C9.09978 69.764 9.1036 69.8423 9.07906 69.9139C8.85701 70.4762 8.64928 71.0397 8.4726 71.5852C8.45443 71.6463 8.41713 71.6999 8.36619 71.7382C8.31525 71.7764 8.25337 71.7973 8.18966 71.7977V71.7941ZM9.52197 68.4515C9.48045 68.4505 9.43966 68.4403 9.40258 68.4216C9.33248 68.3854 9.27844 68.3243 9.25105 68.2503C9.22367 68.1763 9.22491 68.0948 9.25455 68.0217C9.50644 67.4892 9.77267 66.9413 10.0544 66.3933C10.07 66.3553 10.0933 66.321 10.1228 66.2924C10.1522 66.2639 10.1873 66.2417 10.2257 66.2273C10.2641 66.2129 10.3051 66.2066 10.3461 66.2087C10.3871 66.2109 10.4272 66.2215 10.4639 66.2398C10.5006 66.2582 10.5332 66.2839 10.5595 66.3154C10.5858 66.3469 10.6053 66.3835 10.6169 66.4229C10.6284 66.4623 10.6317 66.5036 10.6265 66.5443C10.6214 66.5851 10.6079 66.6243 10.5869 66.6595C10.3051 67.2075 10.0389 67.7399 9.80251 68.2581C9.7797 68.3141 9.741 68.3623 9.69115 68.3967C9.6413 68.4311 9.58249 68.4501 9.52197 68.4515V68.4515ZM11.1802 65.2532C11.1277 65.2524 11.0765 65.2371 11.0321 65.209C10.9976 65.1911 10.9672 65.166 10.9429 65.1356C10.9187 65.1051 10.901 65.0699 10.8913 65.0322C10.8815 64.9945 10.8797 64.9551 10.8861 64.9167C10.8925 64.8783 10.9068 64.8416 10.9283 64.8091C11.21 64.3053 11.5252 63.7872 11.8463 63.2571C11.8874 63.1941 11.9512 63.1493 12.0244 63.1321C12.0977 63.1149 12.1747 63.1265 12.2396 63.1647C12.3044 63.2028 12.3521 63.2644 12.3727 63.3368C12.3933 63.4092 12.3852 63.4867 12.3501 63.5532C12.0242 64.0857 11.7138 64.605 11.4321 65.0932C11.4101 65.1414 11.3746 65.1822 11.3299 65.2106C11.2852 65.239 11.2332 65.2538 11.1802 65.2532V65.2532ZM13.0604 62.1756C13.0035 62.1748 12.9476 62.1596 12.8981 62.1314C12.8325 62.0873 12.7865 62.0194 12.7701 61.9421C12.7536 61.8648 12.7678 61.7841 12.8097 61.7171C13.1058 61.2587 13.4317 60.7549 13.8018 60.2069C13.8232 60.1739 13.8509 60.1453 13.8833 60.123C13.9158 60.1006 13.9523 60.0848 13.9908 60.0766C14.0293 60.0683 14.0691 60.0677 14.1079 60.0748C14.1466 60.0819 14.1836 60.0966 14.2167 60.118C14.2497 60.1394 14.2783 60.1671 14.3006 60.1995C14.323 60.232 14.3388 60.2685 14.347 60.307C14.3553 60.3455 14.3559 60.3853 14.3488 60.4241C14.3417 60.4628 14.327 60.4998 14.3056 60.5329C13.9355 61.0808 13.6251 61.5846 13.3135 62.043C13.2827 62.0813 13.2443 62.1128 13.2008 62.1356C13.1572 62.1584 13.1095 62.172 13.0604 62.1756V62.1756ZM15.0446 59.1552C14.9873 59.1563 14.931 59.141 14.8822 59.111C14.8493 59.0894 14.8212 59.0612 14.7996 59.0284C14.7779 58.9955 14.7632 58.9585 14.7562 58.9198C14.7493 58.881 14.7503 58.8413 14.7593 58.8029C14.7682 58.7646 14.7849 58.7285 14.8082 58.6968L15.0899 58.2825C15.3418 57.9124 15.5782 57.5567 15.8158 57.2021C15.8381 57.17 15.8665 57.1427 15.8995 57.1216C15.9324 57.1006 15.9691 57.0862 16.0076 57.0793C16.046 57.0724 16.0855 57.0732 16.1237 57.0816C16.1618 57.0899 16.198 57.1058 16.23 57.1281C16.2621 57.1504 16.2894 57.1789 16.3105 57.2118C16.3316 57.2447 16.346 57.2814 16.3528 57.3199C16.3597 57.3584 16.3589 57.3978 16.3506 57.436C16.3422 57.4741 16.3264 57.5103 16.3041 57.5423C16.0653 57.9005 15.8158 58.2682 15.5782 58.6228L15.2965 59.037C15.2661 59.0744 15.2277 59.1043 15.184 59.1246C15.1404 59.1449 15.0927 59.1549 15.0446 59.154V59.1552ZM17.0585 56.1492C17.0013 56.1503 16.945 56.135 16.8962 56.105C16.8306 56.0609 16.7846 55.993 16.7682 55.9157C16.7517 55.8384 16.7659 55.7577 16.8078 55.6907C17.166 55.1428 17.4883 54.639 17.7701 54.1806C17.7901 54.1458 17.8168 54.1153 17.8487 54.091C17.8806 54.0667 17.917 54.049 17.9558 54.0389C17.9946 54.0288 18.0351 54.0265 18.0748 54.0322C18.1145 54.0379 18.1527 54.0514 18.1871 54.0721C18.2215 54.0927 18.2514 54.1199 18.2752 54.1523C18.299 54.1846 18.3161 54.2213 18.3255 54.2603C18.3349 54.2993 18.3364 54.3398 18.33 54.3794C18.3236 54.419 18.3094 54.4569 18.2882 54.4909C17.9921 54.9685 17.6817 55.4687 17.3104 56.0154C17.282 56.0563 17.2442 56.0896 17.2001 56.1127C17.1561 56.1358 17.1071 56.1479 17.0573 56.148L17.0585 56.1492ZM18.9388 53.0691C18.8863 53.0683 18.8351 53.053 18.7908 53.0249C18.7567 53.0065 18.7265 52.9816 18.702 52.9515C18.6775 52.9215 18.6592 52.8869 18.6482 52.8497C18.6371 52.8126 18.6334 52.7736 18.6374 52.735C18.6414 52.6965 18.6529 52.6591 18.6714 52.625C18.9818 52.0627 19.2492 51.5446 19.4999 51.0408C19.5155 51.0028 19.5388 50.9685 19.5682 50.9399C19.5977 50.9114 19.6328 50.8892 19.6712 50.8748C19.7096 50.8604 19.7506 50.8541 19.7916 50.8562C19.8326 50.8584 19.8727 50.869 19.9094 50.8873C19.9461 50.9057 19.9787 50.9314 20.005 50.9629C20.0313 50.9944 20.0508 51.031 20.0624 51.0704C20.0739 51.1098 20.0772 51.1511 20.072 51.1918C20.0669 51.2326 20.0534 51.2718 20.0323 51.307C19.7805 51.8251 19.5142 52.3588 19.1883 52.9211C19.166 52.9679 19.1303 53.007 19.0856 53.0334C19.0409 53.0598 18.9894 53.0722 18.9376 53.0691H18.9388ZM20.4788 49.8124C20.4436 49.8149 20.4082 49.8101 20.375 49.798C20.3008 49.7701 20.2406 49.7142 20.2074 49.6422C20.1741 49.5703 20.1704 49.4882 20.1971 49.4136C20.3996 48.8618 20.5679 48.2981 20.7009 47.7256C20.7186 47.649 20.7661 47.5825 20.8328 47.5409C20.8995 47.4992 20.98 47.4858 21.0566 47.5035C21.1333 47.5213 21.1997 47.5687 21.2413 47.6354C21.283 47.7021 21.2964 47.7827 21.2787 47.8593C21.1479 48.4582 20.9748 49.047 20.7606 49.6214C20.7396 49.6789 20.7009 49.7283 20.6501 49.7624C20.5992 49.7965 20.5388 49.8136 20.4776 49.8112L20.4788 49.8124ZM21.2333 46.3037C21.1534 46.3003 21.0779 46.2661 21.0227 46.2082C20.9675 46.1503 20.9369 46.0733 20.9373 45.9933C20.9516 45.8011 20.9516 45.5934 20.9516 45.3869C20.9516 45.0168 20.9373 44.6324 20.9074 44.2169C20.9035 44.1378 20.9311 44.0603 20.9843 44.0015C21.0374 43.9428 21.1118 43.9075 21.1909 43.9036C21.2701 43.8996 21.3476 43.9273 21.4064 43.9804C21.4651 44.0336 21.5004 44.1079 21.5043 44.1871C21.5338 44.6161 21.5485 45.014 21.5485 45.3809C21.5485 45.603 21.5485 45.8107 21.5342 46.0172C21.5337 46.0557 21.5255 46.0937 21.51 46.1288C21.4945 46.164 21.472 46.1957 21.4438 46.2219C21.4157 46.2482 21.3825 46.2684 21.3464 46.2814C21.3102 46.2945 21.2717 46.3 21.2333 46.2978V46.3037ZM21.0256 42.7056C20.9544 42.7054 20.8856 42.68 20.8314 42.6339C20.7772 42.5877 20.7411 42.5239 20.7295 42.4537C20.6555 41.8914 20.5672 41.2992 20.4478 40.6773C20.4367 40.6018 20.4553 40.525 20.4999 40.463C20.5444 40.4011 20.6113 40.3589 20.6864 40.3454C20.7615 40.3319 20.8389 40.3481 20.9022 40.3907C20.9655 40.4332 21.0098 40.4988 21.0256 40.5734C21.145 41.1954 21.2333 41.8018 21.3073 42.3641C21.3127 42.4021 21.3104 42.4408 21.3006 42.4779C21.2907 42.5151 21.2736 42.5498 21.2501 42.5802C21.2266 42.6105 21.1973 42.6359 21.1639 42.6548C21.1304 42.6736 21.0936 42.6856 21.0554 42.69C21.0495 42.7056 21.0399 42.7056 21.0256 42.7056V42.7056ZM20.3893 39.1528C20.3199 39.1534 20.2525 39.1299 20.1985 39.0864C20.1445 39.0428 20.1073 38.9819 20.0932 38.914C19.9738 38.3517 19.8413 37.7596 19.6933 37.1674C19.6756 37.0908 19.689 37.0103 19.7306 36.9436C19.7723 36.8769 19.8387 36.8294 19.9154 36.8117C19.992 36.7939 20.0725 36.8074 20.1392 36.849C20.2059 36.8907 20.2534 36.9571 20.2711 37.0337C20.4191 37.6402 20.5528 38.2276 20.671 38.7958C20.685 38.8724 20.6701 38.9515 20.629 39.0177C20.588 39.0838 20.5238 39.1324 20.449 39.154L20.3893 39.1528ZM19.5453 35.6441C19.479 35.646 19.4142 35.6247 19.3619 35.584C19.3096 35.5433 19.2731 35.4856 19.2587 35.4209C19.1107 34.8586 18.9484 34.2808 18.7812 33.6887C18.7594 33.6109 18.7693 33.5277 18.8088 33.4573C18.8483 33.3869 18.9142 33.335 18.9919 33.3132C19.0697 33.2914 19.1529 33.3013 19.2233 33.3408C19.2937 33.3803 19.3455 33.4462 19.3674 33.5239C19.5298 34.1208 19.6933 34.7082 19.8449 35.2705C19.8558 35.3076 19.8591 35.3466 19.8545 35.3851C19.8499 35.4235 19.8375 35.4607 19.818 35.4942C19.7986 35.5277 19.7725 35.5569 19.7414 35.58C19.7103 35.6031 19.6749 35.6196 19.6372 35.6286C19.6062 35.6306 19.5754 35.6354 19.5453 35.6429V35.6441ZM18.5675 32.1653C18.5043 32.1663 18.4425 32.1465 18.3916 32.109C18.3407 32.0715 18.3035 32.0183 18.2858 31.9576C18.1234 31.3953 17.9455 30.8175 17.7677 30.2254C17.756 30.1885 17.7517 30.1496 17.755 30.111C17.7584 30.0724 17.7693 30.0349 17.7871 30.0005C17.8232 29.9311 17.8853 29.8789 17.9599 29.8553C18.0344 29.8317 18.1153 29.8387 18.1847 29.8748C18.2541 29.9108 18.3064 29.9729 18.33 30.0475C18.5078 30.6444 18.6881 31.2175 18.8481 31.7797C18.8593 31.8177 18.8628 31.8575 18.8584 31.8968C18.854 31.9361 18.8417 31.9741 18.8224 32.0086C18.803 32.0431 18.7769 32.0734 18.7456 32.0977C18.7144 32.1219 18.6786 32.1396 18.6404 32.1498C18.6164 32.156 18.5921 32.1608 18.5675 32.1641V32.1653ZM17.5014 28.7033C17.4385 28.7029 17.3774 28.6826 17.3268 28.6453C17.2761 28.6079 17.2387 28.5555 17.2197 28.4955C17.0418 27.9177 16.8496 27.3554 16.6717 26.7776C16.6482 26.7031 16.6552 26.6222 16.6912 26.5528C16.7272 26.4834 16.7894 26.4311 16.864 26.4076C16.9385 26.384 17.0194 26.391 17.0888 26.427C17.1582 26.4631 17.2104 26.5252 17.234 26.5998C17.4262 27.1776 17.6041 27.7542 17.7963 28.3177C17.81 28.3631 17.8127 28.4111 17.8041 28.4577C17.7955 28.5044 17.776 28.5483 17.747 28.5859C17.7181 28.6235 17.6806 28.6536 17.6377 28.6738C17.5948 28.694 17.5477 28.7037 17.5003 28.7021L17.5014 28.7033ZM16.3912 25.2686C16.3283 25.2683 16.2671 25.248 16.2165 25.2107C16.1659 25.1733 16.1284 25.1209 16.1095 25.0609C15.9172 24.4831 15.725 23.9208 15.5316 23.3585C15.5062 23.2859 15.5106 23.2061 15.5439 23.1367C15.5773 23.0673 15.6369 23.0139 15.7095 22.9885C15.7822 22.963 15.862 22.9674 15.9314 23.0007C16.0008 23.0341 16.0541 23.0937 16.0796 23.1663C16.2718 23.7286 16.464 24.3064 16.6574 24.8842C16.6708 24.9211 16.6765 24.9603 16.6739 24.9994C16.6714 25.0386 16.6608 25.0767 16.6427 25.1115C16.6246 25.1463 16.5995 25.177 16.569 25.2016C16.5384 25.2262 16.5031 25.2441 16.4652 25.2543C16.4431 25.2654 16.4179 25.2688 16.3936 25.2639L16.3912 25.2686ZM15.2212 21.8484C15.1604 21.8483 15.101 21.8299 15.0508 21.7956C15.0006 21.7614 14.9618 21.7128 14.9395 21.6562C14.7473 21.0783 14.5396 20.5161 14.3426 19.9538C14.3171 19.8811 14.3215 19.8013 14.3549 19.7319C14.3883 19.6625 14.4478 19.6092 14.5205 19.5837C14.5931 19.5582 14.673 19.5626 14.7424 19.596C14.8118 19.6293 14.8651 19.6889 14.8906 19.7616C15.0828 20.3239 15.2905 20.9017 15.4875 21.464C15.5006 21.4999 15.5064 21.5381 15.5046 21.5763C15.5027 21.6146 15.4932 21.652 15.4767 21.6865C15.4601 21.721 15.4367 21.7519 15.408 21.7772C15.3794 21.8025 15.3459 21.8219 15.3096 21.834C15.2818 21.8445 15.2519 21.8482 15.2225 21.8448L15.2212 21.8484ZM14.037 18.4436C13.9762 18.4435 13.9168 18.4251 13.8665 18.3909C13.8163 18.3566 13.7775 18.308 13.7552 18.2514C13.5475 17.6736 13.3553 17.1113 13.1488 16.549C13.1212 16.4744 13.1244 16.392 13.1577 16.3198C13.1909 16.2476 13.2515 16.1915 13.3261 16.164C13.4006 16.1364 13.4831 16.1396 13.5553 16.1729C13.6275 16.2061 13.6835 16.2667 13.7111 16.3413C13.9033 16.9036 14.111 17.467 14.3175 18.0437C14.3307 18.0796 14.3365 18.1178 14.3346 18.1561C14.3328 18.1943 14.3233 18.2317 14.3067 18.2662C14.2901 18.3007 14.2668 18.3316 14.2381 18.3569C14.2094 18.3822 14.1759 18.4016 14.1397 18.4137C14.1093 18.4335 14.0731 18.4423 14.037 18.4388V18.4436ZM12.8432 15.0388C12.7823 15.0387 12.723 15.0204 12.6727 14.9861C12.6225 14.9518 12.5837 14.9032 12.5614 14.8466C12.3537 14.2688 12.1615 13.6922 11.9645 13.1442C11.939 13.0716 11.9435 12.9918 11.9768 12.9223C12.0102 12.8529 12.0697 12.7996 12.1424 12.7741C12.2151 12.7487 12.2949 12.7531 12.3643 12.7864C12.4337 12.8198 12.487 12.8794 12.5125 12.952C12.7047 13.5 12.8969 14.0778 13.1094 14.6544C13.1345 14.7291 13.1301 14.8105 13.097 14.882C13.0639 14.9535 13.0047 15.0097 12.9315 15.0388C12.8969 15.0197 12.8682 15.034 12.8384 15.034L12.8432 15.0388ZM11.6493 11.6185C11.5864 11.6182 11.5253 11.5979 11.4747 11.5605C11.424 11.5232 11.3866 11.4708 11.3676 11.4108C11.1599 10.8043 10.9677 10.2409 10.7898 9.6929C10.7781 9.65598 10.7738 9.61712 10.7772 9.57854C10.7805 9.53996 10.7914 9.50242 10.8093 9.46805C10.8271 9.43368 10.8515 9.40317 10.8812 9.37825C10.9108 9.35333 10.9451 9.3345 10.982 9.32282C11.0189 9.31114 11.0578 9.30684 11.0964 9.31018C11.1349 9.31352 11.1725 9.32442 11.2068 9.34227C11.2412 9.36012 11.2717 9.38456 11.2967 9.4142C11.3216 9.44384 11.3404 9.4781 11.3521 9.51502C11.53 10.0475 11.7222 10.6253 11.9299 11.2174C11.943 11.2533 11.9489 11.2916 11.947 11.3298C11.9452 11.368 11.9356 11.4055 11.9191 11.44C11.9025 11.4745 11.8792 11.5053 11.8505 11.5306C11.8218 11.556 11.7883 11.5753 11.752 11.5875C11.7369 11.6012 11.7186 11.6108 11.6987 11.6154C11.6789 11.62 11.6582 11.6194 11.6386 11.6138L11.6493 11.6185Z" fill="#E8C981"/>
<path d="M6.9897 79.9993C6.9516 80.0009 6.91356 79.9948 6.87786 79.9814C6.84216 79.968 6.80951 79.9476 6.78189 79.9213C6.75426 79.895 6.73221 79.8634 6.71705 79.8284C6.70188 79.7934 6.69392 79.7557 6.69363 79.7176C6.67931 79.3033 6.66379 78.8879 6.67931 78.4891C6.67931 78.41 6.71076 78.3341 6.76673 78.2781C6.8227 78.2221 6.89861 78.1907 6.97777 78.1907C7.05692 78.1907 7.13283 78.2221 7.18881 78.2781C7.24478 78.3341 7.27622 78.41 7.27622 78.4891C7.27622 78.8891 7.27622 79.289 7.29054 79.6829C7.28813 79.7621 7.25658 79.8376 7.20193 79.8948C7.14729 79.9521 7.07341 79.9872 6.99448 79.9934L6.9897 79.9993Z" fill="#E8C981"/>
<path d="M10.7671 56.7116C10.7369 56.714 10.7066 56.7091 10.6787 56.6973L10.2645 56.5636C9.99824 56.4752 9.76067 56.4012 9.52429 56.3248C9.48737 56.3131 9.45311 56.2943 9.42347 56.2694C9.39383 56.2444 9.36939 56.2139 9.35155 56.1796C9.3337 56.1452 9.3228 56.1076 9.31946 56.0691C9.31612 56.0305 9.32041 55.9916 9.33209 55.9547C9.34377 55.9178 9.3626 55.8835 9.38752 55.8539C9.41244 55.8243 9.44296 55.7998 9.47733 55.782C9.51169 55.7641 9.54923 55.7532 9.58781 55.7499C9.62639 55.7465 9.66525 55.7508 9.70217 55.7625C9.94093 55.8365 10.1797 55.9105 10.4423 56.0013L10.8566 56.135C10.8936 56.1465 10.928 56.1653 10.9577 56.1902C10.9874 56.215 11.0119 56.2456 11.0298 56.28C11.0477 56.3144 11.0585 56.352 11.0618 56.3906C11.0651 56.4292 11.0606 56.4681 11.0488 56.505C11.0333 56.5669 10.9967 56.6215 10.9452 56.6592C10.8938 56.6969 10.8307 56.7154 10.7671 56.7116V56.7116Z" fill="#E8C981"/>
<path d="M30.7386 76.3272C30.6734 76.328 30.6098 76.3064 30.5585 76.266C30.5072 76.2256 30.4714 76.1688 30.4569 76.1052C30.3089 75.5727 30.131 74.9949 29.9245 74.3873C29.9128 74.3504 29.9085 74.3115 29.9118 74.2729C29.9152 74.2343 29.9261 74.1968 29.9439 74.1624C29.9618 74.128 29.9862 74.0975 30.0158 74.0726C30.0455 74.0477 30.0797 74.0289 30.1167 74.0172C30.1536 74.0055 30.1924 74.0012 30.231 74.0046C30.2696 74.0079 30.3071 74.0188 30.3415 74.0366C30.3759 74.0545 30.4064 74.0789 30.4313 74.1086C30.4562 74.1382 30.4751 74.1725 30.4867 74.2094C30.6945 74.8158 30.8712 75.4032 31.0192 75.9559C31.0304 75.9939 31.0339 76.0337 31.0295 76.073C31.0251 76.1123 31.0128 76.1504 30.9935 76.1849C30.9741 76.2193 30.948 76.2496 30.9168 76.2739C30.8855 76.2981 30.8497 76.3158 30.8115 76.326L30.7386 76.3272ZM29.5842 72.8926C29.5234 72.8925 29.464 72.8742 29.4138 72.8399C29.3635 72.8056 29.3247 72.757 29.3025 72.7004C29.0948 72.1679 28.8584 71.6045 28.622 71.0422C28.5975 70.9706 28.6013 70.8923 28.6327 70.8234C28.6641 70.7545 28.7207 70.7002 28.7909 70.6718C28.8611 70.6433 28.9394 70.6429 29.01 70.6705C29.0805 70.6981 29.1377 70.7516 29.17 70.8201C29.4219 71.3979 29.6475 71.9602 29.866 72.5082C29.8939 72.5808 29.8925 72.6615 29.8623 72.7331C29.832 72.8048 29.7751 72.862 29.7036 72.8926H29.5842ZM28.1624 69.5762C28.1049 69.5787 28.0481 69.5627 28.0002 69.5308C27.9523 69.4988 27.9159 69.4524 27.8962 69.3983C27.7923 69.1906 27.704 68.9685 27.6001 68.7465C27.4521 68.4206 27.2897 68.0946 27.1118 67.7843C27.0745 67.7155 27.0659 67.6348 27.0881 67.5598C27.1103 67.4848 27.1613 67.4217 27.23 67.3843C27.2987 67.347 27.3795 67.3384 27.4545 67.3606C27.5295 67.3827 27.5926 67.4338 27.6299 67.5025C27.8078 67.8284 27.9881 68.1543 28.1337 68.4946C28.2376 68.7166 28.3415 68.9387 28.4298 69.1464C28.4627 69.2191 28.4657 69.3019 28.438 69.3768C28.4102 69.4517 28.3541 69.5126 28.2818 69.5463C28.2447 69.565 28.2039 69.5753 28.1624 69.5762V69.5762ZM26.4158 66.4221C26.3677 66.4234 26.3201 66.4116 26.278 66.3881C26.236 66.3646 26.2011 66.3301 26.1771 66.2884C25.8368 65.8109 25.4608 65.3405 25.0811 64.8821C25.0559 64.8529 25.0366 64.8191 25.0245 64.7825C25.0123 64.7459 25.0075 64.7072 25.0103 64.6688C25.013 64.6303 25.0234 64.5927 25.0406 64.5583C25.0579 64.5238 25.0818 64.493 25.111 64.4678C25.1401 64.4426 25.174 64.4233 25.2106 64.4112C25.2472 64.399 25.2858 64.3942 25.3243 64.3969C25.3628 64.3997 25.4003 64.4101 25.4348 64.4273C25.4693 64.4446 25.5 64.4685 25.5252 64.4977C25.9259 64.9609 26.3016 65.4451 26.651 65.9482C26.6947 66.0134 26.7114 66.093 26.6975 66.1702C26.6837 66.2475 26.6405 66.3164 26.577 66.3624C26.5301 66.3975 26.4742 66.4186 26.4158 66.4233V66.4221ZM24.0473 63.6835C24.0085 63.6833 23.9702 63.6753 23.9346 63.6602C23.8989 63.645 23.8666 63.6229 23.8396 63.5951C23.4107 63.1823 22.9608 62.7918 22.4917 62.4252C22.4348 62.3749 22.3995 62.3046 22.3931 62.229C22.3868 62.1533 22.4098 62.0781 22.4575 62.019C22.5052 61.9599 22.5739 61.9215 22.6492 61.9117C22.7245 61.902 22.8007 61.9217 22.8618 61.9668C23.3407 62.3482 23.8001 62.7534 24.2383 63.1809C24.2936 63.2348 24.326 63.308 24.3286 63.3851C24.3313 63.4623 24.3041 63.5376 24.2526 63.5951C24.2276 63.6251 24.1958 63.6487 24.1599 63.664C24.124 63.6793 24.085 63.686 24.0461 63.6835H24.0473ZM21.2346 61.4152C21.1774 61.4164 21.1211 61.401 21.0723 61.3711C20.5948 61.0451 20.0802 60.7192 19.5621 60.4088C19.4991 60.3678 19.4543 60.304 19.4371 60.2308C19.4198 60.1575 19.4315 60.0804 19.4696 60.0156C19.5077 59.9507 19.5694 59.903 19.6417 59.8825C19.7141 59.8619 19.7916 59.87 19.8582 59.905C20.3906 60.2154 20.9099 60.5414 21.3982 60.8828C21.4617 60.9288 21.505 60.9977 21.5188 61.075C21.5326 61.1522 21.5159 61.2318 21.4722 61.2971C21.4466 61.3365 21.411 61.3684 21.3691 61.3898C21.3272 61.4112 21.2804 61.4212 21.2335 61.4188L21.2346 61.4152ZM18.1307 59.5791C18.0848 59.5764 18.0397 59.5663 17.997 59.5493C17.4789 59.2831 16.9309 59.0312 16.383 58.7793C16.348 58.7636 16.3165 58.7412 16.2902 58.7133C16.2639 58.6855 16.2433 58.6527 16.2297 58.6169C16.216 58.5811 16.2096 58.543 16.2107 58.5047C16.2118 58.4664 16.2205 58.4286 16.2361 58.3937C16.2518 58.3587 16.2742 58.3272 16.3021 58.3009C16.3299 58.2746 16.3627 58.254 16.3985 58.2404C16.4343 58.2267 16.4725 58.2203 16.5108 58.2214C16.5491 58.2225 16.5868 58.2311 16.6217 58.2468C17.184 58.4987 17.7475 58.765 18.2656 59.0312C18.3007 59.0486 18.3321 59.0727 18.3578 59.1023C18.3836 59.1318 18.4032 59.1662 18.4157 59.2033C18.4281 59.2405 18.433 59.2798 18.4302 59.3188C18.4274 59.3579 18.4169 59.3961 18.3993 59.4311C18.3697 59.4771 18.3291 59.5151 18.2812 59.5415C18.2332 59.568 18.1795 59.5822 18.1247 59.5827L18.1307 59.5791ZM14.8143 58.1131C14.7791 58.1157 14.7437 58.1108 14.7104 58.0988C14.1772 57.8919 13.6145 57.6845 13.0224 57.4768C12.9864 57.4642 12.9532 57.4446 12.9248 57.4192C12.8964 57.3938 12.8733 57.363 12.8568 57.3286C12.8403 57.2942 12.8307 57.257 12.8286 57.2189C12.8265 57.1808 12.8319 57.1427 12.8445 57.1067C12.8571 57.0708 12.8767 57.0376 12.9021 57.0092C12.9276 56.9808 12.9583 56.9577 12.9927 56.9412C13.0271 56.9246 13.0643 56.915 13.1024 56.9129C13.1405 56.9108 13.1786 56.9162 13.2146 56.9288C13.821 57.1366 14.369 57.3431 14.917 57.5652C14.9885 57.5958 15.0453 57.653 15.0756 57.7246C15.1059 57.7963 15.1072 57.8769 15.0793 57.9496C15.0556 58.001 15.0173 58.0443 14.969 58.0741C14.9208 58.1038 14.8649 58.1186 14.8083 58.1167L14.8143 58.1131Z" fill="#E8C981"/>
<path d="M31.2426 79.9994C31.217 80.0017 31.1913 79.9968 31.1685 79.9851C31.0921 79.9661 31.0262 79.918 30.9847 79.8511C30.9433 79.7842 30.9295 79.7037 30.9465 79.6269C30.9962 79.2581 30.9914 78.884 30.9322 78.5166C30.9282 78.4774 30.9321 78.4379 30.9434 78.4002C30.9548 78.3625 30.9735 78.3274 30.9985 78.2969C31.0234 78.2664 31.0541 78.2411 31.0888 78.2225C31.1235 78.2039 31.1616 78.1923 31.2008 78.1884C31.24 78.1845 31.2795 78.1883 31.3172 78.1997C31.355 78.2111 31.3901 78.2297 31.4205 78.2547C31.451 78.2796 31.4763 78.3103 31.4949 78.345C31.5135 78.3797 31.5251 78.4178 31.5291 78.457C31.5975 78.8884 31.5975 79.328 31.5291 79.7594C31.5184 79.8273 31.4835 79.889 31.4308 79.9331C31.3781 79.9772 31.3113 80.0008 31.2426 79.9994V79.9994Z" fill="#E8C981"/>
<path d="M79.5518 81.229C79.421 81.23 79.2947 81.1812 79.1985 81.0925C79.1023 81.0039 79.0434 80.8819 79.0337 80.7515C79.0194 80.6321 77.8053 68.596 75.8211 62.2592C74.6954 58.6467 71.3204 55.464 68.6105 52.9176C66.4485 50.875 64.8798 49.409 64.8798 48.165C64.5728 45.3429 64.0382 42.5502 63.2813 39.8142C63.2597 39.7224 63.262 39.6266 63.2879 39.5359C63.3138 39.4452 63.3625 39.3627 63.4293 39.2961C66.6275 36.5329 68.6461 32.6496 69.0701 28.4443C69.2321 26.7047 69.0562 24.9502 68.552 23.2775C68.5139 23.1764 68.5091 23.0659 68.5383 22.9619C68.5675 22.858 68.6292 22.7661 68.7143 22.6997C71.6905 20.287 73.9994 12.3803 73.5553 6.13304C73.5504 6.06594 73.5588 5.99854 73.58 5.93469C73.6012 5.87084 73.6348 5.81178 73.6788 5.7609C73.7228 5.71002 73.7764 5.6683 73.8365 5.63814C73.8966 5.60797 73.9621 5.58994 74.0292 5.58508C74.0963 5.58022 74.1637 5.58862 74.2276 5.60981C74.2914 5.631 74.3505 5.66455 74.4014 5.70856C74.4522 5.75257 74.4939 5.80618 74.5241 5.86631C74.5543 5.92644 74.5723 5.99192 74.5772 6.05902C74.7493 9.42643 74.3591 12.799 73.4228 16.0382C72.8081 18.7348 71.5018 21.2248 69.6324 23.2631C70.1034 24.9574 70.2651 26.7226 70.1099 28.4742C69.6897 32.8508 67.6391 36.9093 64.3652 39.8441C65.1218 42.5677 65.641 45.3518 65.9172 48.165C65.9172 48.9649 67.5754 50.5192 69.322 52.1619C72.1203 54.7967 75.5991 58.0844 76.8132 61.9512C78.8272 68.3919 80.0556 80.5318 80.0699 80.65C80.0833 80.7853 80.0426 80.9203 79.9567 81.0257C79.8708 81.131 79.7467 81.1981 79.6115 81.2123C79.5942 81.2248 79.5731 81.2307 79.5518 81.229V81.229Z" fill="#E8C981"/>
<path d="M69.7516 7.55612C69.7214 7.55854 69.6911 7.55363 69.6633 7.54179C69.625 7.53161 69.5892 7.51387 69.558 7.48962C69.5267 7.46537 69.5006 7.4351 69.4812 7.4006C69.4619 7.36611 69.4496 7.32807 69.4452 7.28876C69.4408 7.24944 69.4443 7.20964 69.4555 7.1717C69.5884 6.74273 69.6919 6.35792 69.7659 6.01728C69.7837 5.94066 69.8311 5.87422 69.8978 5.83258C69.9308 5.81196 69.9676 5.79805 70.006 5.79164C70.0444 5.78523 70.0838 5.78645 70.1217 5.79523C70.1596 5.80401 70.1955 5.82018 70.2272 5.84281C70.2589 5.86544 70.2857 5.89409 70.3064 5.92712C70.327 5.96016 70.3409 5.99693 70.3473 6.03534C70.3537 6.07375 70.3525 6.11305 70.3437 6.15099C70.2554 6.49123 70.1515 6.89116 70.0178 7.33526C70.0043 7.39643 69.9708 7.45136 69.9226 7.49135C69.8744 7.53135 69.8142 7.55414 69.7516 7.55612V7.55612Z" fill="#E8C981"/>
<path d="M73.0523 77.5556C72.9768 77.5538 72.9047 77.5239 72.85 77.4718C72.7953 77.4198 72.7619 77.3492 72.7563 77.2739C72.7419 77.1115 72.7264 76.9635 72.7121 76.8155C72.7042 76.7363 72.728 76.6573 72.7784 76.5957C72.8288 76.5341 72.9016 76.4951 72.9807 76.4872C73.0599 76.4792 73.1389 76.5031 73.2005 76.5535C73.262 76.6038 73.3011 76.6766 73.309 76.7558C73.3233 76.9181 73.3388 77.0817 73.3532 77.2333C73.3576 77.2727 73.3536 77.3126 73.3414 77.3503C73.3292 77.3881 73.3091 77.4228 73.2824 77.4521C73.2558 77.4815 73.2231 77.5048 73.1868 77.5206C73.1504 77.5364 73.1111 77.5443 73.0714 77.5437C73.0712 77.5458 73.0705 77.5479 73.0693 77.5498C73.0682 77.5516 73.0666 77.5532 73.0648 77.5543C73.0629 77.5555 73.0609 77.5562 73.0587 77.5564C73.0566 77.5566 73.0544 77.5564 73.0523 77.5556V77.5556ZM72.7706 75.2874C72.6994 75.2872 72.6306 75.2618 72.5764 75.2157C72.5222 75.1695 72.4861 75.1057 72.4745 75.0355C72.3707 74.4577 72.2525 73.8811 72.1044 73.2889C72.0919 73.2512 72.0873 73.2112 72.0908 73.1716C72.0943 73.132 72.1059 73.0935 72.1249 73.0585C72.1438 73.0235 72.1698 72.9928 72.2011 72.9682C72.2323 72.9437 72.2683 72.9258 72.3068 72.9156C72.3453 72.9055 72.3854 72.9034 72.4248 72.9093C72.4641 72.9153 72.5017 72.9293 72.5355 72.9504C72.5692 72.9715 72.5983 72.9993 72.6208 73.0321C72.6434 73.0648 72.659 73.1019 72.6667 73.1409C72.8148 73.7378 72.9485 74.3347 73.0511 74.9173C73.0585 74.9554 73.0581 74.9945 73.05 75.0325C73.0419 75.0704 73.0262 75.1063 73.004 75.1381C72.9817 75.1698 72.9532 75.1968 72.9203 75.2173C72.8874 75.2378 72.8507 75.2515 72.8124 75.2575C72.8004 75.2898 72.7861 75.2898 72.7706 75.2898V75.2874ZM71.8824 71.7931C71.8195 71.7927 71.7583 71.7724 71.7077 71.7351C71.6571 71.6977 71.6196 71.6453 71.6006 71.5853C71.4228 71.0374 71.2162 70.4751 70.9942 69.914C70.9771 69.8776 70.9675 69.838 70.9662 69.7978C70.9648 69.7576 70.9717 69.7175 70.9864 69.68C71.001 69.6426 71.0232 69.6085 71.0515 69.5798C71.0798 69.5512 71.1136 69.5286 71.1509 69.5135C71.1882 69.4984 71.2282 69.4911 71.2684 69.4919C71.3087 69.4928 71.3483 69.5018 71.3849 69.5185C71.4215 69.5352 71.4543 69.5592 71.4814 69.589C71.5084 69.6189 71.5291 69.6539 71.5421 69.6919C71.7642 70.2697 71.9862 70.8464 72.1641 71.4099C72.176 71.4468 72.1804 71.4857 72.1771 71.5243C72.1739 71.5629 72.163 71.6005 72.1451 71.6349C72.1272 71.6693 72.1028 71.6999 72.073 71.7247C72.0433 71.7496 72.0089 71.7684 71.9719 71.7799C71.9439 71.7928 71.9131 71.7985 71.8824 71.7966V71.7931ZM70.5501 68.4504C70.4926 68.4528 70.4358 68.4369 70.3879 68.405C70.34 68.373 70.3036 68.3266 70.2839 68.2725C70.0451 67.7544 69.7801 67.2064 69.4995 66.674C69.4709 66.6043 69.4696 66.5263 69.4961 66.4558C69.5225 66.3852 69.5747 66.3273 69.6421 66.2936C69.7095 66.2599 69.7872 66.2529 69.8595 66.2741C69.9318 66.2953 69.9934 66.343 70.032 66.4077C70.3137 66.9557 70.5942 67.5037 70.8318 68.0361C70.8648 68.1088 70.8677 68.1916 70.84 68.2665C70.8123 68.3414 70.7561 68.4023 70.6838 68.436C70.6403 68.4481 70.5951 68.453 70.5501 68.4504V68.4504ZM68.8919 65.2521C68.8405 65.2523 68.7899 65.2387 68.7456 65.2126C68.7013 65.1866 68.6648 65.1491 68.64 65.1041C68.3582 64.6003 68.0431 64.0822 67.7219 63.5641C67.7004 63.5309 67.6857 63.4938 67.6789 63.4548C67.6721 63.4159 67.6732 63.3759 67.6823 63.3374C67.6913 63.2989 67.7081 63.2627 67.7316 63.2308C67.755 63.199 67.7847 63.1723 67.8188 63.1522C67.8529 63.1322 67.8907 63.1193 67.9299 63.1143C67.9691 63.1093 68.009 63.1122 68.047 63.1231C68.0851 63.1339 68.1205 63.1523 68.1512 63.1772C68.1819 63.2021 68.2073 63.233 68.2257 63.268C68.5516 63.8005 68.862 64.3198 69.1438 64.82C69.1811 64.8872 69.1911 64.9663 69.1718 65.0407C69.1524 65.1151 69.1052 65.1793 69.0399 65.2199C68.9924 65.2377 68.9425 65.2486 68.8919 65.2521V65.2521ZM67.0116 62.1721C66.9617 62.1733 66.9123 62.1616 66.8682 62.1382C66.8241 62.1147 66.7867 62.0804 66.7597 62.0384C66.4637 61.5799 66.1377 61.0762 65.7676 60.5282C65.7462 60.4951 65.7316 60.4581 65.7245 60.4194C65.7173 60.3806 65.7179 60.3409 65.7262 60.3023C65.7345 60.2638 65.7502 60.2273 65.7726 60.1949C65.795 60.1624 65.8235 60.1347 65.8566 60.1133C65.8897 60.0919 65.9266 60.0773 65.9654 60.0702C66.0041 60.063 66.0439 60.0636 66.0824 60.0719C66.121 60.0801 66.1575 60.0959 66.1899 60.1183C66.2223 60.1407 66.25 60.1692 66.2714 60.2023C66.6415 60.7502 66.9674 61.254 67.2635 61.7125C67.3049 61.7796 67.3187 61.8601 67.3023 61.9373C67.2858 62.0144 67.2403 62.0823 67.1752 62.1267C67.1263 62.1578 67.0695 62.1739 67.0116 62.1733V62.1721ZM65.0275 59.1517C64.9778 59.1513 64.929 59.1389 64.8852 59.1156C64.8414 59.0924 64.8037 59.0589 64.7756 59.018L64.4795 58.5882L63.7632 57.5222C63.7181 57.4574 63.7006 57.3774 63.7144 57.2997C63.7283 57.222 63.7725 57.153 63.8372 57.1079C63.902 57.0628 63.982 57.0452 64.0597 57.0591C64.1374 57.073 64.2064 57.1172 64.2515 57.1819L64.9678 58.248L65.2638 58.6778C65.3075 58.743 65.3242 58.8226 65.3104 58.8998C65.2966 58.9771 65.2534 59.046 65.1898 59.092C65.1437 59.1293 65.0867 59.1506 65.0275 59.1529V59.1517ZM63.0135 56.1457C62.9636 56.1469 62.9142 56.1352 62.8701 56.1118C62.826 56.0883 62.7886 56.054 62.7616 56.012C62.3915 55.4497 62.0811 54.9602 61.7839 54.4875C61.7444 54.4188 61.7334 54.3374 61.7534 54.2608C61.7733 54.1842 61.8225 54.1184 61.8905 54.0778C61.9584 54.0371 62.0395 54.0247 62.1165 54.0432C62.1935 54.0618 62.2601 54.1099 62.302 54.1771C62.5837 54.6546 62.9085 55.1393 63.2642 55.6873C63.3056 55.7544 63.3194 55.8349 63.303 55.9121C63.2865 55.9892 63.241 56.0571 63.1759 56.1015C63.1276 56.1317 63.0716 56.1474 63.0147 56.1469L63.0135 56.1457ZM61.1332 53.0656C61.0818 53.0658 61.0313 53.0522 60.987 53.0261C60.9427 53.0001 60.9062 52.9626 60.8813 52.9176C60.5554 52.3398 60.2844 51.8217 60.0373 51.3036C60.0163 51.2683 60.0028 51.2291 59.9976 51.1884C59.9925 51.1476 59.9958 51.1063 60.0073 51.0669C60.0188 51.0275 60.0384 50.9909 60.0647 50.9594C60.091 50.9279 60.1235 50.9022 60.1602 50.8838C60.197 50.8655 60.237 50.8549 60.278 50.8527C60.319 50.8506 60.36 50.8569 60.3985 50.8713C60.4369 50.8857 60.472 50.9079 60.5014 50.9365C60.5309 50.965 60.5541 50.9994 60.5697 51.0373C60.8085 51.5411 61.0879 52.0592 61.3983 52.6215C61.4172 52.6555 61.4292 52.6929 61.4334 52.7316C61.4376 52.7703 61.4341 52.8094 61.423 52.8467C61.4118 52.884 61.3933 52.9186 61.3686 52.9487C61.3438 52.9787 61.3134 53.0034 61.2789 53.0215C61.2382 53.0543 61.1867 53.0709 61.1344 53.068L61.1332 53.0656ZM59.5932 49.8089C59.5324 49.8088 59.473 49.7904 59.4228 49.7562C59.3725 49.7219 59.3337 49.6733 59.3115 49.6167C59.0973 49.0423 58.9241 48.4535 58.7934 47.8546C58.7756 47.778 58.7891 47.6975 58.8307 47.6307C58.8724 47.564 58.9388 47.5166 59.0154 47.4989C59.092 47.4811 59.1725 47.4946 59.2393 47.5362C59.306 47.5778 59.3534 47.6443 59.3711 47.7209C59.5042 48.2934 59.6724 48.8572 59.875 49.409C59.889 49.4458 59.8955 49.4852 59.8941 49.5246C59.8928 49.564 59.8835 49.6028 59.867 49.6386C59.8504 49.6744 59.8268 49.7066 59.7976 49.7331C59.7685 49.7597 59.7343 49.7802 59.6971 49.7934C59.6641 49.8051 59.6294 49.8108 59.5944 49.8101L59.5932 49.8089ZM58.8387 46.3026C58.7624 46.3033 58.6889 46.2743 58.6336 46.2217C58.5784 46.1691 58.5457 46.0971 58.5426 46.0209C58.5283 45.8132 58.5283 45.6066 58.5283 45.3846C58.5283 45.0145 58.5427 44.6003 58.5725 44.1908C58.5765 44.1116 58.6117 44.0373 58.6705 43.9841C58.7292 43.9309 58.8067 43.9033 58.8859 43.9073C58.965 43.9112 59.0394 43.9464 59.0925 44.0052C59.1457 44.064 59.1734 44.1415 59.1694 44.2206C59.1396 44.6349 59.1252 45.0205 59.1252 45.3906C59.1252 45.5983 59.1252 45.8048 59.1395 45.997C59.141 46.037 59.1344 46.0768 59.1202 46.1142C59.106 46.1515 59.0845 46.1857 59.0569 46.2146C59.0293 46.2435 58.9963 46.2666 58.9596 46.2826C58.923 46.2985 58.8835 46.307 58.8435 46.3074L58.8387 46.3026ZM59.0465 42.7045H59.0058C58.9676 42.7004 58.9305 42.6886 58.8969 42.6698C58.8634 42.6511 58.8339 42.6257 58.8104 42.5952C58.7868 42.5648 58.7697 42.5299 58.76 42.4927C58.7503 42.4554 58.7483 42.4166 58.7539 42.3786C58.828 41.8163 58.9319 41.2086 59.0357 40.5878C59.0415 40.5489 59.0549 40.5115 59.0754 40.4779C59.0959 40.4443 59.1229 40.4152 59.1548 40.3922C59.1868 40.3693 59.223 40.3529 59.2614 40.3443C59.2997 40.3356 59.3395 40.3347 59.3782 40.3416C59.4169 40.3486 59.4538 40.3633 59.4868 40.3848C59.5197 40.4063 59.548 40.4342 59.57 40.4668C59.5919 40.4995 59.6071 40.5362 59.6146 40.5748C59.622 40.6135 59.6217 40.6532 59.6135 40.6917C59.4941 41.3137 59.4058 41.9058 59.3318 42.4681C59.3242 42.5367 59.2902 42.5997 59.2369 42.6437C59.1836 42.6876 59.1153 42.709 59.0465 42.7033V42.7045ZM59.6828 39.1517H59.623C59.584 39.1445 59.5468 39.1293 59.514 39.107C59.4812 39.0846 59.4535 39.0556 59.4326 39.0219C59.4117 38.9881 59.398 38.9504 59.3926 38.911C59.3871 38.8717 59.39 38.8317 59.401 38.7935C59.5204 38.2312 59.6529 37.6391 59.8009 37.0314C59.8215 36.956 59.8699 36.8912 59.9363 36.85C60.0028 36.8088 60.0824 36.7943 60.1591 36.8094C60.2356 36.8281 60.3018 36.8761 60.3433 36.9431C60.3848 37.0101 60.3984 37.0907 60.3811 37.1675C60.2331 37.774 60.0994 38.3614 59.9812 38.9141C59.964 38.9807 59.9256 39.0398 59.8717 39.0824C59.8178 39.1251 59.7515 39.149 59.6828 39.1505V39.1517ZM60.5268 35.643C60.5013 35.6455 60.4755 35.6405 60.4528 35.6287C60.4152 35.6195 60.38 35.6027 60.3491 35.5795C60.3182 35.5563 60.2922 35.5272 60.2729 35.4937C60.2535 35.4603 60.241 35.4233 60.2362 35.385C60.2315 35.3466 60.2345 35.3077 60.2451 35.2706C60.3931 34.7083 60.5554 34.1161 60.7226 33.524C60.7441 33.4474 60.7952 33.3825 60.8646 33.3435C60.899 33.3242 60.9368 33.3119 60.9759 33.3072C61.0151 33.3025 61.0547 33.3056 61.0927 33.3163C61.1306 33.3269 61.1661 33.345 61.197 33.3693C61.228 33.3937 61.2539 33.4239 61.2731 33.4583C61.2924 33.4927 61.3048 33.5305 61.3095 33.5696C61.3141 33.6088 61.311 33.6484 61.3004 33.6864C61.138 34.2833 60.9745 34.8706 60.8228 35.4186C60.8034 35.4823 60.7643 35.5383 60.7111 35.5784C60.6579 35.6185 60.5934 35.6407 60.5268 35.6418V35.643ZM61.5033 32.1643C61.4731 32.1667 61.4428 32.1618 61.415 32.1499C61.3767 32.1397 61.3409 32.122 61.3097 32.0978C61.2784 32.0735 61.2524 32.0432 61.233 32.0087C61.2136 31.9742 61.2014 31.9362 61.197 31.8969C61.1925 31.8576 61.196 31.8178 61.2073 31.7798C61.3696 31.2176 61.5475 30.6397 61.7254 30.0476C61.7371 30.0107 61.7559 29.9764 61.7808 29.9468C61.8057 29.9172 61.8362 29.8927 61.8706 29.8749C61.905 29.857 61.9425 29.8461 61.9811 29.8428C62.0197 29.8394 62.0585 29.8437 62.0955 29.8554C62.1324 29.8671 62.1666 29.8859 62.1963 29.9108C62.2259 29.9358 62.2504 29.9663 62.2682 30.0006C62.2861 30.035 62.2969 30.0725 62.3003 30.1111C62.3036 30.1497 62.2994 30.1886 62.2877 30.2255C62.1098 30.8224 61.9295 31.3954 61.7695 31.9577C61.7566 32.0176 61.7229 32.0709 61.6744 32.1083C61.6259 32.1457 61.5657 32.1647 61.5045 32.1619L61.5033 32.1643ZM62.5694 28.7022C62.5392 28.7046 62.5089 28.6997 62.4811 28.6878C62.444 28.6763 62.4097 28.6576 62.38 28.6327C62.3502 28.6078 62.3257 28.5773 62.3079 28.5428C62.29 28.5084 62.2791 28.4708 62.2759 28.4322C62.2726 28.3936 62.277 28.3547 62.2888 28.3178C62.4667 27.74 62.6589 27.1633 62.8511 26.5999C62.8747 26.5253 62.927 26.4632 62.9964 26.4271C63.0658 26.3911 63.1467 26.3841 63.2212 26.4077C63.2958 26.4312 63.3579 26.4835 63.394 26.5529C63.43 26.6223 63.437 26.7032 63.4134 26.7777C63.2212 27.3555 63.0433 27.9178 62.8655 28.4956C62.8408 28.554 62.7999 28.604 62.7476 28.6398C62.6954 28.6755 62.6339 28.6955 62.5706 28.6974L62.5694 28.7022ZM63.6797 25.2676C63.6495 25.27 63.6192 25.2651 63.5913 25.2532C63.5195 25.2258 63.4603 25.1729 63.4249 25.1047C63.3895 25.0365 63.3803 24.9577 63.3991 24.8832C63.5913 24.3053 63.7835 23.7431 63.9769 23.1652C64.0026 23.0927 64.056 23.0333 64.1253 23C64.1946 22.9667 64.2743 22.9621 64.347 22.9874C64.4188 23.0148 64.478 23.0677 64.5134 23.1359C64.5488 23.2041 64.558 23.2829 64.5392 23.3575C64.347 23.9197 64.1548 24.4975 63.9614 25.0598C63.9454 25.121 63.9087 25.1746 63.8576 25.2117C63.8064 25.2487 63.7439 25.2668 63.6809 25.2628L63.6797 25.2676ZM64.8496 21.8473C64.8025 21.8493 64.7556 21.8398 64.7131 21.8194C64.6706 21.799 64.6338 21.7684 64.6059 21.7304C64.5781 21.6924 64.56 21.6481 64.5534 21.6014C64.5467 21.5547 64.5517 21.5071 64.5679 21.4629C64.7601 20.885 64.9678 20.3228 65.1648 19.7605C65.1903 19.6878 65.2436 19.6282 65.313 19.5949C65.3824 19.5615 65.4622 19.5571 65.5349 19.5826C65.6075 19.6081 65.6671 19.6614 65.7004 19.7308C65.7338 19.8002 65.7382 19.88 65.7127 19.9527C65.5205 20.515 65.3128 21.0784 65.1158 21.6551C65.0982 21.7102 65.0635 21.7582 65.0167 21.7921C64.9699 21.8261 64.9134 21.8441 64.8556 21.8437L64.8496 21.8473ZM66.0339 18.4425C65.9868 18.4446 65.9399 18.435 65.8974 18.4146C65.8549 18.3942 65.8181 18.3637 65.7902 18.3256C65.7624 18.2876 65.7443 18.2433 65.7376 18.1966C65.731 18.15 65.736 18.1024 65.7521 18.0581C65.9598 17.4803 66.152 16.918 66.349 16.3557C66.3766 16.2811 66.4326 16.2206 66.5048 16.1873C66.577 16.1541 66.6595 16.1509 66.734 16.1784C66.8086 16.206 66.8692 16.262 66.9024 16.3342C66.9357 16.4064 66.9389 16.4889 66.9113 16.5634C66.7191 17.1257 66.5114 17.6892 66.3144 18.2658C66.2897 18.3186 66.2501 18.363 66.2005 18.3936C66.1508 18.4241 66.0933 18.4395 66.035 18.4377L66.0339 18.4425ZM67.2277 15.0377C67.1925 15.0393 67.1573 15.0345 67.1238 15.0234C67.0497 14.9955 66.9895 14.9395 66.9562 14.8676C66.9229 14.7957 66.9192 14.7136 66.9459 14.639C67.1537 14.0612 67.3459 13.4846 67.5428 12.9366C67.5555 12.9006 67.575 12.8675 67.6005 12.8391C67.6259 12.8107 67.6567 12.7875 67.691 12.771C67.7254 12.7545 67.7627 12.7449 67.8008 12.7428C67.8389 12.7407 67.8769 12.7461 67.9129 12.7587C67.9489 12.7713 67.9821 12.7909 68.0105 12.8164C68.0389 12.8418 68.062 12.8726 68.0785 12.9069C68.095 12.9413 68.1046 12.9786 68.1067 13.0166C68.1088 13.0547 68.1034 13.0928 68.0908 13.1288C67.8986 13.6768 67.7064 14.2546 67.4939 14.8312C67.4811 14.89 67.448 14.9424 67.4004 14.9793C67.3528 15.0162 67.2938 15.0352 67.2336 15.033L67.2277 15.0377ZM68.4215 11.6174C68.3913 11.6199 68.361 11.615 68.3332 11.6031C68.2607 11.5774 68.2012 11.5241 68.1679 11.4547C68.1346 11.3854 68.13 11.3057 68.1553 11.233C68.363 10.6361 68.5552 10.0631 68.7331 9.53064C68.7567 9.45608 68.8089 9.39394 68.8783 9.3579C68.9477 9.32185 69.0286 9.31485 69.1032 9.33844C69.1777 9.36203 69.2399 9.41427 69.2759 9.48367C69.312 9.55308 69.319 9.63396 69.2954 9.70852C69.1175 10.2565 68.9253 10.8188 68.7176 11.4264C68.691 11.4791 68.6512 11.524 68.602 11.5567C68.5528 11.5893 68.4959 11.6086 68.437 11.6127L68.4215 11.6174Z" fill="#E8C981"/>
<path d="M73.0824 79.9995C73.0424 79.999 73.0029 79.9905 72.9663 79.9746C72.9296 79.9587 72.8965 79.9355 72.869 79.9066C72.8414 79.8777 72.8198 79.8436 72.8056 79.8062C72.7914 79.7688 72.7849 79.729 72.7863 79.6891C72.8007 79.2891 72.8162 78.8892 72.8006 78.4952C72.8006 78.4161 72.8321 78.3402 72.888 78.2842C72.944 78.2282 73.0199 78.1968 73.0991 78.1968C73.1783 78.1968 73.2541 78.2282 73.3101 78.2842C73.3661 78.3402 73.3976 78.4161 73.3976 78.4952C73.3976 78.9095 73.3976 79.3094 73.3832 79.7237C73.3783 79.7996 73.3443 79.8706 73.2882 79.922C73.2322 79.9734 73.1584 80.0012 73.0824 79.9995V79.9995Z" fill="#E8C981"/>
<path d="M69.3061 56.7116C69.2358 56.7109 69.1681 56.6853 69.1149 56.6393C69.0618 56.5932 69.0267 56.5298 69.0161 56.4603C69.0055 56.3907 69.0199 56.3197 69.0569 56.2599C69.0938 56.2001 69.1509 56.1553 69.2178 56.1337L69.6177 56C69.884 55.9117 70.1359 55.8377 70.3734 55.7613C70.4103 55.7496 70.4492 55.7453 70.4878 55.7487C70.5264 55.752 70.5639 55.7629 70.5983 55.7808C70.6327 55.7986 70.6631 55.823 70.6881 55.8527C70.713 55.8823 70.7318 55.9166 70.7435 55.9535C70.7552 55.9904 70.7595 56.0293 70.7562 56.0678C70.7528 56.1064 70.7419 56.144 70.7241 56.1783C70.7062 56.2127 70.6818 56.2432 70.6521 56.2681C70.6225 56.2931 70.5882 56.3119 70.5513 56.3236C70.3125 56.3976 70.063 56.4859 69.7968 56.5623L69.3969 56.696C69.3684 56.7087 69.3372 56.714 69.3061 56.7116V56.7116Z" fill="#E8C981"/>
<path d="M49.3339 76.3274C49.3083 76.3314 49.2822 76.3263 49.2599 76.3131C49.2217 76.3029 49.1859 76.2851 49.1546 76.2609C49.1234 76.2366 49.0973 76.2064 49.0779 76.1719C49.0586 76.1374 49.0463 76.0994 49.0419 76.06C49.0375 76.0207 49.041 75.9809 49.0522 75.943C49.2002 75.395 49.3781 74.8029 49.5847 74.1964C49.5963 74.1595 49.6152 74.1252 49.6401 74.0956C49.665 74.066 49.6955 74.0415 49.7299 74.0237C49.7642 74.0058 49.8018 73.9949 49.8404 73.9916C49.879 73.9883 49.9178 73.9926 49.9547 74.0042C49.9917 74.0159 50.0259 74.0347 50.0556 74.0596C50.0852 74.0846 50.1096 74.1151 50.1275 74.1495C50.1453 74.1838 50.1562 74.2214 50.1596 74.26C50.1629 74.2985 50.1586 74.3374 50.1469 74.3743C49.9392 74.9712 49.7625 75.5443 49.6145 76.0922C49.603 76.1582 49.5685 76.218 49.5172 76.261C49.4658 76.304 49.4009 76.3275 49.3339 76.3274V76.3274ZM50.4884 72.8928C50.4531 72.8954 50.4177 72.8904 50.3845 72.8784C50.3127 72.8478 50.2556 72.7905 50.2253 72.7185C50.195 72.6465 50.1939 72.5656 50.2222 72.4928C50.4299 71.9449 50.6662 71.3826 50.9181 70.8048C50.9312 70.7667 50.9519 70.7317 50.9789 70.7019C51.0059 70.6721 51.0387 70.6481 51.0754 70.6314C51.112 70.6147 51.1516 70.6057 51.1919 70.6048C51.2321 70.6039 51.2721 70.6113 51.3094 70.6264C51.3467 70.6415 51.3805 70.6641 51.4088 70.6927C51.4371 70.7213 51.4593 70.7554 51.4739 70.7929C51.4886 70.8304 51.4955 70.8705 51.4941 70.9107C51.4928 70.9509 51.4832 70.9904 51.4661 71.0268C51.2273 71.5891 50.9886 72.1526 50.7856 72.6851C50.7627 72.7453 50.7223 72.7973 50.6695 72.8344C50.6167 72.8714 50.554 72.8917 50.4896 72.8928H50.4884ZM51.9102 69.5763C51.8687 69.5754 51.8279 69.5652 51.7908 69.5465C51.7207 69.5103 51.6667 69.4492 51.6393 69.3752C51.6119 69.3012 51.6132 69.2197 51.6428 69.1466C51.7467 68.9389 51.835 68.7168 51.9389 68.4947C52.1012 68.1545 52.2648 67.8286 52.4426 67.5027C52.48 67.434 52.5431 67.3829 52.6181 67.3608C52.6931 67.3386 52.7739 67.3471 52.8426 67.3845C52.9113 67.4219 52.9623 67.485 52.9845 67.56C53.0067 67.635 52.9981 67.7157 52.9607 67.7844C52.7829 68.0948 52.6205 68.4207 52.4725 68.7466C52.3686 68.9687 52.2648 69.1764 52.1764 69.3985C52.1509 69.4484 52.1131 69.4909 52.0665 69.5221C52.0199 69.5532 51.9661 69.5719 51.9102 69.5763V69.5763ZM53.6568 66.4223C53.6271 66.4237 53.5974 66.4192 53.5695 66.4089C53.5416 66.3987 53.5161 66.3829 53.4944 66.3626C53.4309 66.3165 53.3876 66.2476 53.3738 66.1704C53.36 66.0931 53.3767 66.0135 53.4204 65.9483C53.7606 65.4601 54.1462 64.9718 54.5461 64.4978C54.5971 64.4389 54.6694 64.4027 54.7471 64.3971C54.8248 64.3915 54.9015 64.417 54.9604 64.468C55.0193 64.519 55.0555 64.5913 55.0611 64.669C55.0667 64.7467 55.0412 64.8233 54.9903 64.8822C54.6006 65.3315 54.2348 65.801 53.8943 66.2886C53.872 66.3316 53.8377 66.3673 53.7955 66.3912C53.7534 66.4152 53.7052 66.4264 53.6568 66.4235V66.4223ZM56.0253 63.6836C55.9869 63.6853 55.9486 63.6787 55.9129 63.6643C55.8773 63.6499 55.8452 63.628 55.8188 63.6001C55.7917 63.5724 55.7705 63.5395 55.7565 63.5033C55.7425 63.4672 55.736 63.4286 55.7373 63.3899C55.7386 63.3512 55.7478 63.3131 55.7643 63.278C55.7808 63.243 55.8041 63.2116 55.8331 63.1858C56.2629 62.7716 56.7356 62.3717 57.2096 61.9717C57.2394 61.9454 57.2743 61.9253 57.3121 61.9128C57.3499 61.9003 57.3898 61.8956 57.4295 61.8989C57.4692 61.9022 57.5078 61.9136 57.543 61.9322C57.5782 61.9509 57.6092 61.9765 57.6342 62.0075C57.6592 62.0385 57.6777 62.0742 57.6886 62.1125C57.6994 62.1509 57.7023 62.191 57.6972 62.2305C57.6921 62.27 57.6791 62.308 57.6589 62.3424C57.6387 62.3767 57.6117 62.4065 57.5797 62.4302C57.1021 62.8002 56.6616 63.2002 56.2318 63.6001C56.177 63.6538 56.1033 63.6838 56.0265 63.6836H56.0253ZM58.8379 61.4154C58.7883 61.415 58.7395 61.4026 58.6957 61.3793C58.6518 61.3561 58.6142 61.3226 58.586 61.2817C58.5424 61.2165 58.5257 61.1369 58.5395 61.0596C58.5533 60.9824 58.5965 60.9135 58.6601 60.8675C59.1483 60.5272 59.6665 60.2013 60.2001 59.8897C60.2666 59.8546 60.3441 59.8465 60.4165 59.8671C60.4889 59.8877 60.5505 59.9354 60.5886 60.0003C60.6268 60.0651 60.6384 60.1422 60.6212 60.2154C60.604 60.2887 60.5592 60.3524 60.4961 60.3935C59.978 60.7039 59.4599 61.0155 58.986 61.3557C58.9464 61.394 58.8942 61.4165 58.8391 61.419L58.8379 61.4154ZM61.9419 59.5793C61.8871 59.578 61.8337 59.5623 61.787 59.5338C61.7402 59.5053 61.7018 59.465 61.6756 59.417C61.658 59.382 61.6475 59.3438 61.6447 59.3047C61.6419 59.2656 61.6469 59.2263 61.6593 59.1892C61.6717 59.152 61.6914 59.1177 61.7171 59.0881C61.7429 59.0586 61.7742 59.0344 61.8094 59.017C62.3418 58.7508 62.8897 58.4846 63.4532 58.2327C63.5238 58.201 63.6041 58.1987 63.6764 58.2262C63.7488 58.2538 63.8072 58.3089 63.8388 58.3795C63.8705 58.4501 63.8728 58.5304 63.8453 58.6027C63.8177 58.6751 63.7626 58.7335 63.692 58.7651C63.1297 59.017 62.5817 59.2689 62.0636 59.5352C62.0517 59.5686 61.9932 59.5829 61.9478 59.5829L61.9419 59.5793ZM65.2583 58.1133C65.1975 58.1132 65.1381 58.0948 65.0878 58.0606C65.0376 58.0263 64.9988 57.9777 64.9765 57.9211C64.9486 57.8485 64.95 57.7678 64.9803 57.6962C65.0105 57.6245 65.0674 57.5673 65.1389 57.5367C65.6869 57.329 66.2492 57.1224 66.8413 56.9004C66.8773 56.8878 66.9154 56.8824 66.9535 56.8845C66.9915 56.8866 67.0288 56.8962 67.0632 56.9127C67.0975 56.9292 67.1283 56.9523 67.1537 56.9807C67.1792 57.0091 67.1988 57.0423 67.2114 57.0783C67.224 57.1142 67.2294 57.1524 67.2273 57.1904C67.2252 57.2285 67.2156 57.2658 67.1991 57.3001C67.1826 57.3345 67.1595 57.3653 67.131 57.3907C67.1026 57.4161 67.0695 57.4357 67.0335 57.4483C66.4414 57.6553 65.8787 57.8626 65.3455 58.0703C65.3364 58.0838 65.3244 58.0951 65.3103 58.1031C65.2962 58.1112 65.2805 58.1159 65.2642 58.1169L65.2583 58.1133Z" fill="#E8C981"/>
<path d="M48.83 79.9982C48.7647 79.999 48.7012 79.9774 48.6499 79.937C48.5986 79.8966 48.5628 79.8398 48.5483 79.7761C48.4813 79.3446 48.4813 78.9053 48.5483 78.4737C48.5562 78.3945 48.5953 78.3218 48.6568 78.2714C48.7184 78.221 48.7974 78.1972 48.8766 78.2051C48.9557 78.213 49.0285 78.252 49.0789 78.3136C49.1293 78.3752 49.1531 78.4543 49.1452 78.5334C49.086 78.9008 49.0812 79.2749 49.1309 79.6437C49.1482 79.7206 49.1346 79.8011 49.093 79.8681C49.0515 79.9351 48.9854 79.9831 48.9088 80.0018C48.8754 79.9839 48.8455 79.9982 48.83 79.9982Z" fill="#E8C981"/>
<path d="M39.3858 52.8173C40.0319 52.8173 40.5557 51.7301 40.5557 50.389C40.5557 49.048 40.0319 47.9608 39.3858 47.9608C38.7396 47.9608 38.2158 49.048 38.2158 50.389C38.2158 51.7301 38.7396 52.8173 39.3858 52.8173Z" fill="#E8C981"/>
</g>
<defs>
<clipPath id="clip0_225_21">
<rect width="80.073" height="86.813" fill="white"/>
</clipPath>
</defs>
</svg>
