<svg width="142" height="62" viewBox="0 0 142 62" fill="none" xmlns="http://www.w3.org/2000/svg">
<path d="M66.1 20.15C64.7 20.15 63.6333 20.3167 62.9 20.65C62.2 20.95 61.6833 21.5167 61.35 22.35C61.0167 23.15 60.75 24.3667 60.55 26C60.55 26.0667 60.45 26.1 60.25 26.1C60.0833 26.1 60 26.0667 60 26C60.1 25.2667 60.2 24.0667 60.3 22.4C60.4333 20.7 60.5 19.4 60.5 18.5C60.5 18.3334 60.6 18.25 60.8 18.25C61 18.25 61.1 18.3334 61.1 18.5C61.1 18.9334 61.35 19.2167 61.85 19.35C62.35 19.45 62.9667 19.5 63.7 19.5C66.6333 19.5667 69.15 19.6 71.25 19.6L75.6 19.55C76.2 19.5167 76.9833 19.5 77.95 19.5C79.15 19.5 80.0167 19.4334 80.55 19.3C81.1167 19.1334 81.4833 18.8 81.65 18.3C81.7167 18.2 81.8333 18.15 82 18.15C82.1667 18.15 82.25 18.2 82.25 18.3C82.05 21.9 81.95 24.4667 81.95 26C81.95 26.0667 81.85 26.1 81.65 26.1C81.4833 26.1 81.4 26.0667 81.4 26C81.4 24.3334 81.2667 23.1 81 22.3C80.7667 21.5 80.3 20.95 79.6 20.65C78.9333 20.3167 77.8833 20.15 76.45 20.15C75.35 20.15 74.5167 20.25 73.95 20.45C73.3833 20.65 72.9833 21 72.75 21.5C72.55 21.9667 72.45 22.6834 72.45 23.65V39.95C72.45 40.9834 72.55 41.7334 72.75 42.2C72.95 42.6667 73.35 42.9834 73.95 43.15C74.5833 43.3167 75.5667 43.4 76.9 43.4C76.9667 43.4 77 43.5 77 43.7C77 43.9 76.9667 44 76.9 44C75.8667 44 75.0667 43.9834 74.5 43.95L71.1 43.9L67.85 43.95C67.25 43.9834 66.4167 44 65.35 44C65.2833 44 65.25 43.9 65.25 43.7C65.25 43.5 65.2833 43.4 65.35 43.4C66.65 43.4 67.6 43.3167 68.2 43.15C68.8333 42.9834 69.2667 42.6667 69.5 42.2C69.7333 41.7 69.85 40.95 69.85 39.95V23.55C69.85 22.55 69.7667 21.8167 69.6 21.35C69.4333 20.8834 69.0833 20.5667 68.55 20.4C68.05 20.2334 67.2333 20.15 66.1 20.15Z" fill="#D2B67E"/>
<path d="M5.859 61.084C5.439 61.084 4.956 61.063 4.41 61.021C4.2 61.007 3.941 60.993 3.633 60.979C3.325 60.965 2.982 60.958 2.604 60.958L1.134 60.979C0.868 60.993 0.504 61 0.042 61C0.014 61 0 60.958 0 60.874C0 60.79 0.014 60.748 0.042 60.748C0.546 60.748 0.917 60.713 1.155 60.643C1.393 60.573 1.554 60.44 1.638 60.244C1.722 60.034 1.764 59.719 1.764 59.299V49.576C1.764 49.156 1.722 48.848 1.638 48.652C1.554 48.456 1.393 48.323 1.155 48.253C0.931 48.169 0.574 48.127 0.084 48.127C0.042 48.127 0.021 48.085 0.021 48.001C0.021 47.917 0.042 47.875 0.084 47.875L1.134 47.896C1.75 47.924 2.24 47.938 2.604 47.938C3.136 47.938 3.675 47.917 4.221 47.875C4.893 47.847 5.341 47.833 5.565 47.833C7.007 47.833 8.288 48.113 9.408 48.673C10.528 49.233 11.396 49.996 12.012 50.962C12.628 51.928 12.936 53.013 12.936 54.217C12.936 55.575 12.614 56.779 11.97 57.829C11.34 58.865 10.486 59.67 9.408 60.244C8.33 60.804 7.147 61.084 5.859 61.084ZM5.649 60.706C6.699 60.706 7.623 60.475 8.421 60.013C9.233 59.537 9.863 58.851 10.311 57.955C10.773 57.045 11.004 55.953 11.004 54.679C11.004 53.461 10.787 52.362 10.353 51.382C9.933 50.388 9.324 49.611 8.526 49.051C7.742 48.477 6.825 48.19 5.775 48.19C5.173 48.19 4.711 48.225 4.389 48.295C4.067 48.365 3.829 48.505 3.675 48.715C3.521 48.911 3.444 49.212 3.444 49.618V59.068C3.444 59.67 3.591 60.097 3.885 60.349C4.193 60.587 4.781 60.706 5.649 60.706Z" fill="#D2B67E"/>
<path d="M25.5211 60.748C25.5631 60.748 25.5841 60.79 25.5841 60.874C25.5841 60.958 25.5631 61 25.5211 61H22.7491C22.5251 61 22.1051 60.58 21.4891 59.74C20.8731 58.9 20.1451 57.745 19.3051 56.275C19.0111 56.317 18.7171 56.338 18.4231 56.338C18.1291 56.338 17.9051 56.331 17.7511 56.317V59.299C17.7511 59.733 17.7861 60.048 17.8561 60.244C17.9261 60.44 18.0591 60.573 18.2551 60.643C18.4511 60.713 18.7731 60.748 19.2211 60.748C19.2631 60.748 19.2841 60.79 19.2841 60.874C19.2841 60.958 19.2631 61 19.2211 61C18.8291 61 18.5211 60.993 18.2971 60.979L16.9531 60.958L15.6511 60.979C15.4131 60.993 15.0841 61 14.6641 61C14.6361 61 14.6221 60.958 14.6221 60.874C14.6221 60.79 14.6361 60.748 14.6641 60.748C15.1121 60.748 15.4341 60.713 15.6301 60.643C15.8401 60.573 15.9801 60.44 16.0501 60.244C16.1341 60.034 16.1761 59.719 16.1761 59.299V52.873C16.1761 52.453 16.1341 52.145 16.0501 51.949C15.9801 51.753 15.8401 51.62 15.6301 51.55C15.4341 51.466 15.1261 51.424 14.7061 51.424C14.6641 51.424 14.6431 51.382 14.6431 51.298C14.6431 51.214 14.6641 51.172 14.7061 51.172L15.6721 51.193C16.2041 51.221 16.6311 51.235 16.9531 51.235C17.2191 51.235 17.4571 51.228 17.6671 51.214C17.8911 51.2 18.0801 51.186 18.2341 51.172C18.6681 51.13 19.0811 51.109 19.4731 51.109C20.4391 51.109 21.1741 51.284 21.6781 51.634C22.1961 51.984 22.4551 52.488 22.4551 53.146C22.4551 53.706 22.2871 54.224 21.9511 54.7C21.6291 55.162 21.1811 55.54 20.6071 55.834C21.3771 57.108 22.0281 58.095 22.5601 58.795C23.1061 59.495 23.6101 59.999 24.0721 60.307C24.5341 60.601 25.0171 60.748 25.5211 60.748ZM17.7511 55.918C18.0591 55.946 18.3321 55.96 18.5701 55.96C19.4101 55.96 19.9911 55.771 20.3131 55.393C20.6491 55.015 20.8171 54.455 20.8171 53.713C20.8171 52.201 20.1941 51.445 18.9481 51.445C18.4581 51.445 18.1361 51.55 17.9821 51.76C17.8281 51.97 17.7511 52.355 17.7511 52.915V55.918Z" fill="#D2B67E"/>
<path d="M27.3919 61.231C27.0839 61.231 26.8319 61.14 26.6359 60.958C26.4539 60.762 26.3629 60.51 26.3629 60.202C26.3629 59.894 26.4539 59.656 26.6359 59.488C26.8179 59.306 27.0699 59.215 27.3919 59.215C27.7139 59.215 27.9589 59.306 28.1269 59.488C28.3089 59.656 28.3999 59.894 28.3999 60.202C28.3999 60.524 28.3089 60.776 28.1269 60.958C27.9589 61.14 27.7139 61.231 27.3919 61.231Z" fill="#D2B67E"/>
<path d="M51.5959 60.748C51.6239 60.748 51.6379 60.79 51.6379 60.874C51.6379 60.958 51.6239 61 51.5959 61C51.1479 61 50.7908 60.993 50.5248 60.979L49.0339 60.958L47.6269 60.979C47.3888 60.993 47.0599 61 46.6399 61C46.5979 61 46.5769 60.958 46.5769 60.874C46.5769 60.79 46.5979 60.748 46.6399 60.748C47.2559 60.748 47.6689 60.678 47.8789 60.538C48.1029 60.398 48.2149 60.104 48.2149 59.656L48.1939 59.299L47.7948 50.059L43.1539 60.853C43.1259 60.909 43.0699 60.937 42.9859 60.937C42.9019 60.937 42.8459 60.909 42.8179 60.853L37.5889 50.143L37.4209 58.585C37.4069 59.327 37.5399 59.873 37.8199 60.223C38.0999 60.573 38.5549 60.748 39.1849 60.748C39.2269 60.748 39.2479 60.79 39.2479 60.874C39.2479 60.958 39.2269 61 39.1849 61C38.8069 61 38.5128 60.993 38.3028 60.979L37.1479 60.958L35.9929 60.979C35.7969 60.993 35.5099 61 35.1319 61C35.1039 61 35.0899 60.958 35.0899 60.874C35.0899 60.79 35.1039 60.748 35.1319 60.748C36.2939 60.748 36.8819 60.027 36.8959 58.585L37.0849 49.177C36.6369 48.477 36.0349 48.127 35.2789 48.127C35.2509 48.127 35.2369 48.085 35.2369 48.001C35.2369 47.917 35.2509 47.875 35.2789 47.875L36.1189 47.896C36.2869 47.91 36.5039 47.917 36.7699 47.917C37.0779 47.917 37.3299 47.91 37.5259 47.896C37.7219 47.882 37.8759 47.875 37.9879 47.875C38.1699 47.875 38.3169 47.938 38.4289 48.064C38.5409 48.19 38.7158 48.491 38.9538 48.967L43.6159 58.438L48.0049 48.4C48.1449 48.05 48.3548 47.875 48.6348 47.875C48.7188 47.875 48.8309 47.882 48.9709 47.896C49.1109 47.91 49.2928 47.917 49.5168 47.917L50.5879 47.896C50.7559 47.882 51.0009 47.875 51.3229 47.875C51.3649 47.875 51.3858 47.917 51.3858 48.001C51.3858 48.085 51.3649 48.127 51.3229 48.127C50.6369 48.127 50.1399 48.239 49.8319 48.463C49.5379 48.687 49.3979 49.079 49.4118 49.639L49.8739 59.299C49.9019 59.733 49.9579 60.048 50.0419 60.244C50.1259 60.44 50.2799 60.573 50.5039 60.643C50.7279 60.713 51.0919 60.748 51.5959 60.748Z" fill="#D2B67E"/>
<path d="M63.7506 60.748C63.8206 60.748 63.8556 60.79 63.8556 60.874C63.8556 60.958 63.8206 61 63.7506 61C63.4846 61 63.0716 60.986 62.5116 60.958C61.9236 60.93 61.5036 60.916 61.2516 60.916C61.0416 60.916 60.7266 60.93 60.3066 60.958C59.9146 60.986 59.6136 61 59.4036 61C59.3476 61 59.3196 60.958 59.3196 60.874C59.3196 60.79 59.3476 60.748 59.4036 60.748C59.7536 60.748 60.0056 60.706 60.1596 60.622C60.3276 60.524 60.4116 60.377 60.4116 60.181C60.4116 59.929 60.3206 59.614 60.1386 59.236L58.7736 56.296H55.9806L55.1196 58.417C54.8816 59.005 54.7626 59.453 54.7626 59.761C54.7626 60.111 54.8816 60.363 55.1196 60.517C55.3716 60.671 55.7566 60.748 56.2746 60.748C56.3446 60.748 56.3796 60.79 56.3796 60.874C56.3796 60.958 56.3446 61 56.2746 61C56.0646 61 55.7776 60.986 55.4136 60.958C55.0216 60.93 54.6576 60.916 54.3216 60.916C53.9716 60.916 53.5586 60.93 53.0826 60.958C52.6626 60.986 52.3266 61 52.0746 61C52.0046 61 51.9696 60.958 51.9696 60.874C51.9696 60.79 52.0046 60.748 52.0746 60.748C52.5086 60.748 52.8516 60.685 53.1036 60.559C53.3696 60.433 53.6076 60.202 53.8176 59.866C54.0416 59.516 54.3076 58.97 54.6156 58.228L57.6816 50.857C57.7096 50.801 57.7516 50.773 57.8076 50.773C57.8636 50.773 57.9056 50.801 57.9336 50.857L61.2936 58.123C61.6576 58.893 61.9516 59.46 62.1756 59.824C62.3996 60.174 62.6236 60.419 62.8476 60.559C63.0856 60.685 63.3866 60.748 63.7506 60.748ZM56.1696 55.855H58.5636L57.2826 53.104L56.1696 55.855Z" fill="#D2B67E"/>
<path d="M66.2803 51.487C65.5803 51.487 65.0413 51.683 64.6633 52.075C64.2853 52.453 63.9983 53.083 63.8023 53.965C63.8023 53.993 63.7603 54.007 63.6763 54.007C63.6063 54.007 63.5713 53.993 63.5713 53.965C63.6273 53.531 63.6833 52.971 63.7393 52.285C63.7953 51.599 63.8233 51.074 63.8233 50.71C63.8233 50.64 63.8583 50.605 63.9283 50.605C64.0123 50.605 64.0543 50.64 64.0543 50.71C64.0543 50.892 64.1593 51.011 64.3693 51.067C64.5793 51.109 64.8453 51.13 65.1673 51.13C66.3713 51.158 67.4283 51.172 68.3383 51.172L70.1653 51.151C70.4033 51.137 70.7253 51.13 71.1313 51.13C71.6633 51.13 72.0483 51.102 72.2863 51.046C72.5383 50.976 72.6993 50.836 72.7693 50.626C72.7973 50.584 72.8463 50.563 72.9163 50.563C72.9863 50.563 73.0213 50.584 73.0213 50.626C72.9233 52.432 72.8743 53.545 72.8743 53.965C72.8743 53.993 72.8323 54.007 72.7483 54.007C72.6783 54.007 72.6433 53.993 72.6433 53.965C72.5873 53.111 72.3773 52.488 72.0133 52.096C71.6493 51.69 71.1103 51.487 70.3963 51.487C69.8783 51.487 69.5353 51.585 69.3673 51.781C69.1993 51.963 69.1153 52.327 69.1153 52.873V59.299C69.1153 59.733 69.1503 60.048 69.2203 60.244C69.3043 60.44 69.4653 60.573 69.7033 60.643C69.9413 60.713 70.3193 60.748 70.8373 60.748C70.8653 60.748 70.8793 60.79 70.8793 60.874C70.8793 60.958 70.8653 61 70.8373 61C70.3753 61 70.0183 60.993 69.7663 60.979L68.2963 60.958L66.8473 60.979C66.5813 60.993 66.2173 61 65.7553 61C65.7273 61 65.7133 60.958 65.7133 60.874C65.7133 60.79 65.7273 60.748 65.7553 60.748C66.2733 60.748 66.6513 60.713 66.8893 60.643C67.1273 60.573 67.2883 60.44 67.3723 60.244C67.4703 60.034 67.5193 59.719 67.5193 59.299V52.831C67.5193 52.439 67.4913 52.152 67.4353 51.97C67.3793 51.788 67.2673 51.662 67.0993 51.592C66.9313 51.522 66.6583 51.487 66.2803 51.487Z" fill="#D2B67E"/>
<path d="M79.2803 61.252C78.3003 61.252 77.4253 61.021 76.6553 60.559C75.8853 60.097 75.2833 59.474 74.8493 58.69C74.4293 57.906 74.2192 57.052 74.2192 56.128C74.2192 55.05 74.4992 54.119 75.0592 53.335C75.6192 52.537 76.3332 51.935 77.2012 51.529C78.0832 51.123 78.9793 50.92 79.8893 50.92C80.8693 50.92 81.7372 51.165 82.4932 51.655C83.2492 52.131 83.8303 52.754 84.2363 53.524C84.6423 54.294 84.8453 55.099 84.8453 55.939C84.8453 56.877 84.5932 57.759 84.0892 58.585C83.5852 59.397 82.9062 60.048 82.0522 60.538C81.2122 61.014 80.2883 61.252 79.2803 61.252ZM79.8053 60.811C80.7993 60.811 81.5903 60.426 82.1783 59.656C82.7803 58.886 83.0813 57.815 83.0813 56.443C83.0813 55.519 82.9272 54.672 82.6192 53.902C82.3112 53.132 81.8632 52.523 81.2752 52.075C80.6872 51.613 79.9872 51.382 79.1752 51.382C78.1532 51.382 77.3622 51.746 76.8022 52.474C76.2422 53.202 75.9622 54.231 75.9622 55.561C75.9622 56.541 76.1233 57.43 76.4453 58.228C76.7673 59.026 77.2152 59.656 77.7892 60.118C78.3772 60.58 79.0493 60.811 79.8053 60.811Z" fill="#D2B67E"/>
<path d="M89.2598 59.215C89.2598 59.607 89.2948 59.901 89.3648 60.097C89.4488 60.293 89.5958 60.433 89.8058 60.517C90.0158 60.587 90.3378 60.622 90.7718 60.622H91.7798C92.5358 60.622 93.1658 60.384 93.6698 59.908C94.1878 59.418 94.5518 58.76 94.7618 57.934C94.7618 57.906 94.7898 57.892 94.8458 57.892C94.8878 57.892 94.9228 57.899 94.9508 57.913C94.9928 57.927 95.0138 57.948 95.0138 57.976C94.9158 58.648 94.8668 59.551 94.8668 60.685C94.8668 60.797 94.8388 60.881 94.7828 60.937C94.7408 60.979 94.6568 61 94.5308 61H86.2568C86.2288 61 86.2148 60.958 86.2148 60.874C86.2148 60.79 86.2288 60.748 86.2568 60.748C86.6908 60.748 87.0058 60.713 87.2018 60.643C87.3978 60.573 87.5308 60.44 87.6008 60.244C87.6708 60.034 87.7058 59.719 87.7058 59.299V52.873C87.7058 52.453 87.6708 52.145 87.6008 51.949C87.5308 51.753 87.3908 51.62 87.1808 51.55C86.9848 51.466 86.6768 51.424 86.2568 51.424C86.2288 51.424 86.2148 51.382 86.2148 51.298C86.2148 51.214 86.2288 51.172 86.2568 51.172L87.2228 51.193C87.7828 51.221 88.2168 51.235 88.5248 51.235C88.8608 51.235 89.3088 51.221 89.8688 51.193L90.7928 51.172C90.8208 51.172 90.8348 51.214 90.8348 51.298C90.8348 51.382 90.8208 51.424 90.7928 51.424C90.3448 51.424 90.0158 51.466 89.8058 51.55C89.5958 51.62 89.4488 51.76 89.3648 51.97C89.2948 52.166 89.2598 52.474 89.2598 52.894V59.215Z" fill="#D2B67E"/>
<path d="M99.2316 59.299C99.2316 59.719 99.2666 60.034 99.3366 60.244C99.4066 60.44 99.5396 60.573 99.7356 60.643C99.9456 60.713 100.275 60.748 100.723 60.748C100.765 60.748 100.786 60.79 100.786 60.874C100.786 60.958 100.765 61 100.723 61C100.317 61 100.002 60.993 99.7776 60.979L98.4336 60.958L97.1316 60.979C96.8936 60.993 96.5646 61 96.1446 61C96.1166 61 96.1026 60.958 96.1026 60.874C96.1026 60.79 96.1166 60.748 96.1446 60.748C96.5926 60.748 96.9216 60.713 97.1316 60.643C97.3416 60.573 97.4816 60.44 97.5516 60.244C97.6356 60.034 97.6776 59.719 97.6776 59.299V52.873C97.6776 52.453 97.6356 52.145 97.5516 51.949C97.4816 51.753 97.3416 51.62 97.1316 51.55C96.9216 51.466 96.5926 51.424 96.1446 51.424C96.1166 51.424 96.1026 51.382 96.1026 51.298C96.1026 51.214 96.1166 51.172 96.1446 51.172L97.1316 51.193C97.6636 51.221 98.0976 51.235 98.4336 51.235C98.7836 51.235 99.2386 51.221 99.7986 51.193L100.723 51.172C100.765 51.172 100.786 51.214 100.786 51.298C100.786 51.382 100.765 51.424 100.723 51.424C100.289 51.424 99.9666 51.466 99.7566 51.55C99.5606 51.634 99.4206 51.781 99.3366 51.991C99.2666 52.187 99.2316 52.495 99.2316 52.915V59.299Z" fill="#D2B67E"/>
<path d="M112.984 51.172C113.012 51.172 113.026 51.214 113.026 51.298C113.026 51.382 113.012 51.424 112.984 51.424C112.452 51.424 112.067 51.592 111.829 51.928C111.591 52.264 111.472 52.817 111.472 53.587V61.231C111.472 61.259 111.437 61.28 111.367 61.294C111.297 61.308 111.248 61.301 111.22 61.273L104.143 52.894L103.975 52.705V58.585C103.975 59.355 104.087 59.908 104.311 60.244C104.535 60.58 104.913 60.748 105.445 60.748C105.487 60.748 105.508 60.79 105.508 60.874C105.508 60.958 105.487 61 105.445 61C105.137 61 104.899 60.993 104.731 60.979L103.786 60.958L102.862 60.979C102.68 60.993 102.421 61 102.085 61C102.043 61 102.022 60.958 102.022 60.874C102.022 60.79 102.043 60.748 102.085 60.748C102.617 60.748 102.995 60.58 103.219 60.244C103.457 59.908 103.576 59.355 103.576 58.585V52.264C103.282 51.97 103.009 51.76 102.757 51.634C102.519 51.494 102.274 51.424 102.022 51.424C101.994 51.424 101.98 51.382 101.98 51.298C101.98 51.214 101.994 51.172 102.022 51.172L103.198 51.193C103.338 51.193 103.499 51.193 103.681 51.193C103.863 51.179 104.164 51.172 104.584 51.172C104.696 51.172 104.78 51.207 104.836 51.277C104.906 51.333 105.004 51.452 105.13 51.634C105.256 51.83 105.41 52.04 105.592 52.264L111.052 58.795V53.587C111.052 52.803 110.94 52.25 110.716 51.928C110.492 51.592 110.114 51.424 109.582 51.424C109.554 51.424 109.54 51.382 109.54 51.298C109.54 51.214 109.554 51.172 109.582 51.172L110.317 51.193C110.709 51.221 111.017 51.235 111.241 51.235C111.479 51.235 111.794 51.221 112.186 51.193L112.984 51.172Z" fill="#D2B67E"/>
<path d="M122.148 58.207C122.162 58.165 122.204 58.144 122.274 58.144C122.358 58.144 122.4 58.165 122.4 58.207C122.302 59.215 122.253 60.041 122.253 60.685C122.253 60.797 122.232 60.881 122.19 60.937C122.148 60.979 122.064 61 121.938 61H114.168C114.14 61 114.126 60.958 114.126 60.874C114.126 60.79 114.14 60.748 114.168 60.748C114.616 60.748 114.938 60.713 115.134 60.643C115.344 60.573 115.484 60.44 115.554 60.244C115.638 60.034 115.68 59.719 115.68 59.299V52.873C115.68 52.453 115.638 52.145 115.554 51.949C115.484 51.753 115.344 51.62 115.134 51.55C114.924 51.466 114.602 51.424 114.168 51.424C114.14 51.424 114.126 51.382 114.126 51.298C114.126 51.214 114.14 51.172 114.168 51.172H121.56C121.7 51.172 121.77 51.228 121.77 51.34L121.791 52.642C121.805 52.908 121.812 53.244 121.812 53.65C121.812 53.692 121.77 53.713 121.686 53.713C121.602 53.713 121.56 53.692 121.56 53.65C121.434 53.006 121.14 52.481 120.678 52.075C120.23 51.655 119.712 51.445 119.124 51.445H118.662C118.242 51.445 117.927 51.487 117.717 51.571C117.521 51.641 117.388 51.774 117.318 51.97C117.248 52.166 117.213 52.474 117.213 52.894V55.75C118.473 55.736 119.348 55.701 119.838 55.645C120.342 55.575 120.629 55.54 120.699 55.54C120.783 55.54 120.825 55.694 120.825 56.002C120.825 56.324 120.783 56.485 120.699 56.485C120.643 56.485 120.363 56.45 119.859 56.38C119.355 56.31 118.473 56.261 117.213 56.233V59.215C117.213 59.621 117.248 59.929 117.318 60.139C117.388 60.335 117.521 60.475 117.717 60.559C117.927 60.629 118.242 60.664 118.662 60.664H119.439C120.041 60.664 120.594 60.433 121.098 59.971C121.602 59.509 121.952 58.921 122.148 58.207Z" fill="#D2B67E"/>
<path d="M126.45 51.487C125.75 51.487 125.211 51.683 124.833 52.075C124.455 52.453 124.168 53.083 123.972 53.965C123.972 53.993 123.93 54.007 123.846 54.007C123.776 54.007 123.741 53.993 123.741 53.965C123.797 53.531 123.853 52.971 123.909 52.285C123.965 51.599 123.993 51.074 123.993 50.71C123.993 50.64 124.028 50.605 124.098 50.605C124.182 50.605 124.224 50.64 124.224 50.71C124.224 50.892 124.329 51.011 124.539 51.067C124.749 51.109 125.015 51.13 125.337 51.13C126.541 51.158 127.598 51.172 128.508 51.172L130.335 51.151C130.573 51.137 130.895 51.13 131.301 51.13C131.833 51.13 132.218 51.102 132.456 51.046C132.708 50.976 132.869 50.836 132.939 50.626C132.967 50.584 133.016 50.563 133.086 50.563C133.156 50.563 133.191 50.584 133.191 50.626C133.093 52.432 133.044 53.545 133.044 53.965C133.044 53.993 133.002 54.007 132.918 54.007C132.848 54.007 132.813 53.993 132.813 53.965C132.757 53.111 132.547 52.488 132.183 52.096C131.819 51.69 131.28 51.487 130.566 51.487C130.048 51.487 129.705 51.585 129.537 51.781C129.369 51.963 129.285 52.327 129.285 52.873V59.299C129.285 59.733 129.32 60.048 129.39 60.244C129.474 60.44 129.635 60.573 129.873 60.643C130.111 60.713 130.489 60.748 131.007 60.748C131.035 60.748 131.049 60.79 131.049 60.874C131.049 60.958 131.035 61 131.007 61C130.545 61 130.188 60.993 129.936 60.979L128.466 60.958L127.017 60.979C126.751 60.993 126.387 61 125.925 61C125.897 61 125.883 60.958 125.883 60.874C125.883 60.79 125.897 60.748 125.925 60.748C126.443 60.748 126.821 60.713 127.059 60.643C127.297 60.573 127.458 60.44 127.542 60.244C127.64 60.034 127.689 59.719 127.689 59.299V52.831C127.689 52.439 127.661 52.152 127.605 51.97C127.549 51.788 127.437 51.662 127.269 51.592C127.101 51.522 126.828 51.487 126.45 51.487Z" fill="#D2B67E"/>
<path d="M136.321 52.831C136.321 53.237 136.426 53.594 136.636 53.902C136.86 54.21 137.126 54.469 137.434 54.679C137.742 54.875 138.176 55.12 138.736 55.414C139.31 55.708 139.772 55.974 140.122 56.212C140.486 56.45 140.787 56.751 141.025 57.115C141.277 57.465 141.403 57.885 141.403 58.375C141.403 58.907 141.249 59.397 140.941 59.845C140.647 60.279 140.227 60.622 139.681 60.874C139.135 61.126 138.505 61.252 137.791 61.252C137.259 61.252 136.748 61.182 136.258 61.042C135.782 60.916 135.383 60.741 135.061 60.517C134.949 60.447 134.893 60.307 134.893 60.097L134.704 57.913C134.704 57.857 134.739 57.822 134.809 57.808C134.879 57.794 134.928 57.815 134.956 57.871C135.236 58.683 135.663 59.39 136.237 59.992C136.825 60.58 137.476 60.874 138.19 60.874C138.652 60.874 139.051 60.741 139.387 60.475C139.723 60.195 139.891 59.768 139.891 59.194C139.891 58.746 139.779 58.354 139.555 58.018C139.331 57.668 139.051 57.381 138.715 57.157C138.379 56.919 137.945 56.653 137.413 56.359C136.867 56.065 136.426 55.806 136.09 55.582C135.754 55.344 135.467 55.057 135.229 54.721C135.005 54.371 134.893 53.965 134.893 53.503C134.893 52.705 135.215 52.075 135.859 51.613C136.517 51.151 137.308 50.92 138.232 50.92C139.016 50.92 139.765 51.081 140.479 51.403C140.605 51.459 140.682 51.515 140.71 51.571C140.752 51.613 140.78 51.683 140.794 51.781L140.878 53.65C140.878 53.706 140.843 53.741 140.773 53.755C140.703 53.769 140.654 53.755 140.626 53.713C140.556 53.405 140.395 53.062 140.143 52.684C139.905 52.306 139.583 51.984 139.177 51.718C138.785 51.438 138.344 51.298 137.854 51.298C137.35 51.298 136.965 51.438 136.699 51.718C136.447 51.998 136.321 52.369 136.321 52.831Z" fill="#D2B67E"/>
<path fill-rule="evenodd" clip-rule="evenodd" d="M55 4.77246L56.9094 11.9312C59.137 10.6585 65.8333 8.20864 70.7977 8.59043C75.7621 8.20864 82.4585 10.6585 84.6861 11.9312L86.5955 4.77246C80.1036 10.4994 73.0253 3.65889 70.7977 0C68.5701 3.65889 61.4919 10.4994 55 4.77246Z" fill="#D2B67E"/>
</svg>
