<svg width="349" height="154" viewBox="0 0 349 154" fill="none" xmlns="http://www.w3.org/2000/svg">
<path d="M78.0471 140.911V139.623L78.3393 139.875H77.9807C77.0777 139.875 76.303 139.712 75.6567 139.384C75.0104 139.056 74.5146 138.596 74.1693 138.003C73.824 137.401 73.6514 136.688 73.6514 135.865C73.6514 134.608 74.0276 133.629 74.7802 132.93C75.5416 132.222 76.6084 131.867 77.9807 131.867H78.3393L78.0471 132.106V130.898H79.1361V132.106L78.8439 131.867H79.2025C80.5836 131.867 81.6505 132.222 82.403 132.93C83.1556 133.629 83.5319 134.608 83.5319 135.865C83.5319 136.688 83.3592 137.401 83.0139 138.003C82.6686 138.596 82.1728 139.056 81.5265 139.384C80.8802 139.712 80.1056 139.875 79.2025 139.875H78.8439L79.1361 139.623V140.911H78.0471ZM78.0471 139.225V132.505L78.3127 132.744H77.8214C76.8829 132.744 76.1392 133.014 75.5903 133.554C75.0502 134.085 74.7802 134.855 74.7802 135.865C74.7802 136.511 74.9041 137.069 75.152 137.538C75.4088 138.007 75.7629 138.37 76.2145 138.627C76.6748 138.875 77.2105 138.999 77.8214 138.999H78.3127L78.0471 139.225ZM79.1361 139.225L78.8705 138.999H79.3619C79.9728 138.999 80.5084 138.875 80.9688 138.627C81.4292 138.37 81.7833 138.007 82.0312 137.538C82.2791 137.069 82.403 136.511 82.403 135.865C82.403 134.855 82.1286 134.085 81.5797 133.554C81.0396 133.014 80.3003 132.744 79.3619 132.744H78.8705L79.1361 132.505V139.225Z" fill="#D2B67E"/>
<path d="M86.2432 135.931C86.2432 134.94 86.4114 134.09 86.7478 133.381C87.0931 132.664 87.5845 132.111 88.222 131.721C88.8683 131.332 89.6429 131.137 90.546 131.137C91.4225 131.137 92.1839 131.332 92.8302 131.721C93.4765 132.111 93.9723 132.664 94.3176 133.381C94.6717 134.09 94.8488 134.935 94.8488 135.918C94.8488 136.909 94.6717 137.764 94.3176 138.481C93.9634 139.198 93.4632 139.756 92.8169 140.154C92.1795 140.544 91.4225 140.739 90.546 140.739C89.6429 140.739 88.8727 140.544 88.2352 140.154C87.5978 139.756 87.1064 139.198 86.7611 138.481C86.4158 137.764 86.2432 136.914 86.2432 135.931ZM87.3986 135.931C87.3986 137.135 87.6642 138.078 88.1954 138.76C88.7266 139.433 89.5101 139.769 90.546 139.769C91.5376 139.769 92.3078 139.433 92.8567 138.76C93.4145 138.078 93.6934 137.135 93.6934 135.931C93.6934 134.718 93.4189 133.78 92.87 133.116C92.3211 132.443 91.5464 132.106 90.546 132.106C89.5101 132.106 88.7266 132.443 88.1954 133.116C87.6642 133.78 87.3986 134.718 87.3986 135.931Z" fill="#D2B67E"/>
<path d="M97.9094 140.619V131.257H99.0116V135.4H104.656V131.257H105.745V140.619H104.656V136.343H99.0116V140.619H97.9094Z" fill="#D2B67E"/>
<path d="M108.197 142.704V139.716H109.153C109.631 139.132 109.985 138.348 110.215 137.365C110.445 136.374 110.56 135.143 110.56 133.674V131.257H116.948V139.716H118.316V142.704H117.333V140.619H109.179V142.704H108.197ZM110.282 139.716H115.846V132.16H111.583V133.753C111.583 135.179 111.477 136.374 111.264 137.339C111.052 138.295 110.724 139.087 110.282 139.716Z" fill="#D2B67E"/>
<path d="M127.645 140.619V132.186H124.339V131.257H132.041V132.186H128.748V140.619H127.645Z" fill="#D2B67E"/>
<path d="M132.433 140.619L136.563 131.257H137.519L141.716 140.619H140.574L139.405 137.95L139.896 138.229H134.172L134.704 137.95L133.562 140.619H132.433ZM137.028 132.518L134.876 137.565L134.558 137.326H139.498L139.259 137.565L137.054 132.518H137.028Z" fill="#D2B67E"/>
<path d="M144.19 140.619V131.257H148.002C148.985 131.257 149.742 131.496 150.273 131.974C150.804 132.443 151.07 133.098 151.07 133.939C151.07 134.762 150.804 135.418 150.273 135.905C149.742 136.383 148.985 136.622 148.002 136.622H145.293V140.619H144.19ZM145.293 135.705H147.896C148.577 135.705 149.091 135.55 149.436 135.241C149.79 134.931 149.967 134.497 149.967 133.939C149.967 133.372 149.79 132.934 149.436 132.624C149.091 132.315 148.577 132.16 147.896 132.16H145.293V135.705Z" fill="#D2B67E"/>
<path d="M151.975 140.619L156.105 131.257H157.061L161.258 140.619H160.116L158.947 137.95L159.438 138.229H153.715L154.246 137.95L153.104 140.619H151.975ZM156.57 132.518L154.418 137.565L154.1 137.326H159.04L158.801 137.565L156.596 132.518H156.57Z" fill="#D2B67E"/>
<path d="M167.485 140.739C166.547 140.739 165.75 140.544 165.095 140.154C164.44 139.765 163.935 139.211 163.581 138.494C163.236 137.777 163.063 136.923 163.063 135.931C163.063 134.94 163.236 134.09 163.581 133.381C163.935 132.664 164.44 132.111 165.095 131.721C165.75 131.332 166.547 131.137 167.485 131.137C168.149 131.137 168.743 131.239 169.265 131.442C169.787 131.646 170.243 131.943 170.633 132.332L170.221 133.209C169.796 132.837 169.376 132.567 168.959 132.399C168.543 132.222 168.056 132.133 167.499 132.133C166.427 132.133 165.613 132.465 165.055 133.129C164.497 133.793 164.218 134.727 164.218 135.931C164.218 137.135 164.497 138.074 165.055 138.747C165.613 139.411 166.427 139.743 167.499 139.743C168.056 139.743 168.543 139.658 168.959 139.49C169.376 139.313 169.796 139.034 170.221 138.654L170.633 139.543C170.243 139.924 169.787 140.221 169.265 140.433C168.743 140.637 168.149 140.739 167.485 140.739Z" fill="#D2B67E"/>
<path d="M172.386 140.619L176.516 131.257H177.472L181.669 140.619H180.527L179.358 137.95L179.849 138.229H174.126L174.657 137.95L173.515 140.619H172.386ZM176.981 132.518L174.83 137.565L174.511 137.326H179.451L179.212 137.565L177.008 132.518H176.981Z" fill="#D2B67E"/>
<path d="M188.682 140.619V131.257H189.638L193.397 139.743H193.011L196.77 131.257H197.726V140.619H196.717V132.677H197.115L193.569 140.619H192.839L189.28 132.677H189.678V140.619H188.682Z" fill="#D2B67E"/>
<path d="M200.201 140.619L204.331 131.257H205.288L209.484 140.619H208.342L207.173 137.95L207.665 138.229H201.941L202.472 137.95L201.33 140.619H200.201ZM204.796 132.518L202.645 137.565L202.326 137.326H207.266L207.027 137.565L204.823 132.518H204.796Z" fill="#D2B67E"/>
<path d="M213.14 140.619V132.186H209.834V131.257H217.536V132.186H214.243V140.619H213.14Z" fill="#D2B67E"/>
<path d="M219.044 135.931C219.044 134.94 219.212 134.09 219.549 133.381C219.894 132.664 220.385 132.111 221.023 131.721C221.669 131.332 222.444 131.137 223.347 131.137C224.223 131.137 224.985 131.332 225.631 131.721C226.277 132.111 226.773 132.664 227.118 133.381C227.472 134.09 227.649 134.935 227.649 135.918C227.649 136.909 227.472 137.764 227.118 138.481C226.764 139.198 226.264 139.756 225.618 140.154C224.98 140.544 224.223 140.739 223.347 140.739C222.444 140.739 221.673 140.544 221.036 140.154C220.398 139.756 219.907 139.198 219.562 138.481C219.217 137.764 219.044 136.914 219.044 135.931ZM220.199 135.931C220.199 137.135 220.465 138.078 220.996 138.76C221.527 139.433 222.311 139.769 223.347 139.769C224.338 139.769 225.108 139.433 225.657 138.76C226.215 138.078 226.494 137.135 226.494 135.931C226.494 134.718 226.22 133.78 225.671 133.116C225.122 132.443 224.347 132.106 223.347 132.106C222.311 132.106 221.527 132.443 220.996 133.116C220.465 133.78 220.199 134.718 220.199 135.931Z" fill="#D2B67E"/>
<path d="M230.285 140.818L229.767 139.955C230.139 139.76 230.471 139.53 230.763 139.264C231.055 138.99 231.299 138.636 231.494 138.202C231.697 137.768 231.848 137.219 231.945 136.555C232.051 135.882 232.104 135.055 232.104 134.072V131.257H238.492V140.619H237.403V132.186H233.127V134.351C233.127 135.316 233.065 136.157 232.941 136.874C232.817 137.582 232.631 138.193 232.383 138.707C232.144 139.211 231.848 139.636 231.494 139.982C231.148 140.318 230.745 140.597 230.285 140.818Z" fill="#D2B67E"/>
<path d="M241.888 140.619V131.257H242.99V140.619H241.888Z" fill="#D2B67E"/>
<path d="M246.387 140.619V131.257H247.49V135.4H253.134V131.257H254.223V140.619H253.134V136.343H247.49V140.619H246.387Z" fill="#D2B67E"/>
<path d="M265.825 142.704V140.619H257.618V131.257H258.693V139.689H264.351V131.257H265.453V139.689H266.821V142.704H265.825Z" fill="#D2B67E"/>
<path d="M268.689 140.619L270.416 137.565C270.637 137.175 270.881 136.892 271.146 136.715C271.412 136.538 271.726 136.449 272.089 136.449H272.421L272.355 136.622C271.337 136.622 270.544 136.387 269.978 135.918C269.411 135.449 269.128 134.793 269.128 133.952C269.128 133.085 269.402 132.421 269.951 131.96C270.509 131.491 271.301 131.257 272.328 131.257H276.153V140.619H275.064V136.662H273.377C272.926 136.662 272.567 136.728 272.302 136.861C272.036 136.985 271.797 137.241 271.584 137.631L269.911 140.619H268.689ZM272.488 135.798H275.064V132.146H272.488C270.965 132.146 270.203 132.753 270.203 133.966C270.203 135.187 270.965 135.798 272.488 135.798Z" fill="#D2B67E"/>
<path d="M44.045 119.341C44.0883 119.341 44.1099 119.406 44.1099 119.536C44.1099 119.666 44.0883 119.731 44.045 119.731C43.3307 119.731 42.7679 119.72 42.3567 119.698L40.1165 119.666L37.6815 119.698C37.2702 119.72 36.7075 119.731 35.9932 119.731C35.9499 119.731 35.9283 119.666 35.9283 119.536C35.9283 119.406 35.9499 119.341 35.9932 119.341C36.794 119.341 37.3785 119.287 37.7464 119.179C38.136 119.071 38.3957 118.865 38.5256 118.562C38.6555 118.237 38.7204 117.75 38.7204 117.101V102.296C38.7204 101.56 38.6771 101.073 38.5905 100.835C38.5256 100.597 38.3633 100.446 38.1035 100.381C37.8438 100.316 37.3027 100.283 36.4802 100.283H29.8245C28.9587 100.283 28.3743 100.316 28.0713 100.381C27.7899 100.446 27.6059 100.597 27.5194 100.835C27.4544 101.073 27.422 101.56 27.422 102.296V117.101C27.422 117.772 27.4869 118.259 27.6168 118.562C27.7466 118.865 27.9955 119.071 28.3635 119.179C28.7315 119.287 29.3159 119.341 30.1167 119.341C30.1816 119.341 30.2141 119.406 30.2141 119.536C30.2141 119.666 30.1816 119.731 30.1167 119.731C29.4241 119.731 28.8721 119.72 28.4609 119.698L26.0259 119.666L23.7532 119.698C23.342 119.72 22.7792 119.731 22.0649 119.731C22.0216 119.731 22 119.666 22 119.536C22 119.406 22.0216 119.341 22.0649 119.341C22.8658 119.341 23.4502 119.287 23.8181 119.179C24.2077 119.071 24.4675 118.865 24.5973 118.562C24.7489 118.237 24.8246 117.75 24.8246 117.101V102.459C24.8246 101.788 24.7597 101.268 24.6298 100.9C24.4999 100.532 24.2402 100.262 23.8506 100.089C23.461 99.9153 22.8874 99.8288 22.1299 99.8288C22.0649 99.8288 22.0325 99.7638 22.0325 99.634C22.0325 99.5041 22.0649 99.4392 22.1299 99.4392C22.8441 99.4392 23.5368 99.45 24.2077 99.4716C27.1081 99.5149 30.1059 99.5366 33.2011 99.5366C35.9716 99.5366 39.2074 99.5041 42.9086 99.4392H44.045C44.0883 99.4392 44.1099 99.5041 44.1099 99.634C44.1099 99.7638 44.0883 99.8288 44.045 99.8288C43.2658 99.8288 42.6814 99.9153 42.2918 100.089C41.9022 100.262 41.6316 100.532 41.4801 100.9C41.3502 101.268 41.2853 101.788 41.2853 102.459V117.101C41.2853 117.75 41.3502 118.237 41.4801 118.562C41.6316 118.865 41.8913 119.071 42.2593 119.179C42.6489 119.287 43.2441 119.341 44.045 119.341Z" fill="#D2B67E"/>
<path d="M57.0363 120.121C55.0233 120.121 53.2268 119.655 51.6468 118.724C50.0884 117.772 48.8763 116.495 48.0105 114.893C47.1664 113.27 46.7443 111.506 46.7443 109.601C46.7443 107.372 47.307 105.467 48.4326 103.887C49.5581 102.285 50.9974 101.084 52.7506 100.283C54.5255 99.4825 56.3328 99.082 58.1726 99.082C60.2288 99.082 62.0362 99.569 63.5946 100.543C65.153 101.495 66.3434 102.762 67.1659 104.342C68.01 105.922 68.4321 107.599 68.4321 109.374C68.4321 111.344 67.9126 113.151 66.8737 114.796C65.8348 116.441 64.4387 117.74 62.6855 118.692C60.9539 119.644 59.0709 120.121 57.0363 120.121ZM58.1726 119.406C59.5579 119.406 60.8024 119.049 61.9063 118.335C63.0102 117.621 63.8759 116.582 64.5036 115.218C65.153 113.833 65.4776 112.188 65.4776 110.283C65.4776 108.27 65.1205 106.474 64.4062 104.894C63.7136 103.314 62.7071 102.08 61.3868 101.192C60.0881 100.305 58.573 99.8612 56.8415 99.8612C54.5904 99.8612 52.8372 100.63 51.5818 102.166C50.3265 103.681 49.6988 105.781 49.6988 108.465C49.6988 110.521 50.0559 112.383 50.7702 114.049C51.4844 115.716 52.4801 117.025 53.7571 117.978C55.0558 118.93 56.5276 119.406 58.1726 119.406Z" fill="#D2B67E"/>
<path d="M81.082 108.303C82.8136 108.454 84.2096 109.039 85.2702 110.056C86.3308 111.073 86.8611 112.318 86.8611 113.789C86.8611 114.937 86.5581 115.976 85.952 116.906C85.3676 117.815 84.556 118.54 83.517 119.082C82.4997 119.601 81.3526 119.861 80.0755 119.861C79.3829 119.861 78.6253 119.828 77.8029 119.763C77.4998 119.742 77.1427 119.72 76.7315 119.698C76.3202 119.677 75.8548 119.666 75.3354 119.666L73.0627 119.698C72.6515 119.72 72.0995 119.731 71.4069 119.731C71.342 119.731 71.3095 119.666 71.3095 119.536C71.3095 119.406 71.342 119.341 71.4069 119.341C72.1644 119.341 72.7164 119.287 73.0627 119.179C73.4307 119.049 73.6904 118.833 73.8419 118.53C73.9934 118.227 74.0692 117.75 74.0692 117.101V102.069C74.0692 101.42 73.9934 100.943 73.8419 100.64C73.712 100.337 73.4631 100.132 73.0952 100.024C72.7489 99.8937 72.1969 99.8288 71.4394 99.8288C71.3961 99.8288 71.3744 99.7638 71.3744 99.634C71.3744 99.5041 71.3961 99.4392 71.4394 99.4392L73.0627 99.4716C74.0151 99.5149 74.7726 99.5366 75.3354 99.5366C75.9198 99.5366 76.5583 99.5041 77.2509 99.4392C77.489 99.4175 77.7704 99.3959 78.0951 99.3742C78.4414 99.3526 78.8093 99.3418 79.1989 99.3418C81.0604 99.3418 82.4781 99.7314 83.4521 100.511C84.4261 101.268 84.9131 102.296 84.9131 103.595C84.9131 104.634 84.5776 105.575 83.9066 106.42C83.2356 107.242 82.2941 107.87 81.082 108.303ZM78.5821 99.8937C78.0626 99.8937 77.6622 99.9478 77.3808 100.056C77.121 100.164 76.9262 100.381 76.7964 100.705C76.6882 101.008 76.634 101.485 76.634 102.134V108.303L78.0626 108.335C79.4911 108.335 80.5625 107.924 81.2768 107.101C81.9911 106.279 82.3482 105.197 82.3482 103.855C82.3482 102.621 82.0344 101.658 81.4067 100.965C80.8006 100.251 79.8591 99.8937 78.5821 99.8937ZM79.5561 119.211C81.0928 119.211 82.2292 118.811 82.9651 118.01C83.7226 117.209 84.1014 116.062 84.1014 114.569C84.1014 112.924 83.6469 111.603 82.7378 110.608C81.8287 109.612 80.5409 109.103 78.8743 109.082C78.2899 109.06 77.5431 109.082 76.634 109.147V117.101C76.634 117.642 76.7098 118.064 76.8613 118.367C77.0128 118.649 77.2942 118.865 77.7055 119.017C78.1167 119.147 78.7336 119.211 79.5561 119.211Z" fill="#D2B67E"/>
<path d="M104.176 114.796C104.176 114.753 104.219 114.731 104.306 114.731C104.371 114.731 104.425 114.753 104.468 114.796C104.533 114.818 104.566 114.839 104.566 114.861C104.349 116.419 104.241 117.88 104.241 119.244C104.241 119.417 104.209 119.547 104.144 119.634C104.079 119.698 103.949 119.731 103.754 119.731H89.9231C89.8582 119.731 89.8257 119.666 89.8257 119.536C89.8257 119.406 89.8582 119.341 89.9231 119.341C90.7023 119.341 91.2651 119.287 91.6114 119.179C91.9577 119.071 92.1958 118.865 92.3257 118.562C92.4555 118.237 92.5205 117.75 92.5205 117.101V102.069C92.5205 101.42 92.4555 100.943 92.3257 100.64C92.1958 100.337 91.9469 100.132 91.5789 100.024C91.2326 99.8937 90.6807 99.8288 89.9231 99.8288C89.8582 99.8288 89.8257 99.7638 89.8257 99.634C89.8257 99.5041 89.8582 99.4392 89.9231 99.4392H103.17C103.386 99.4392 103.494 99.5366 103.494 99.7314L103.559 103.822C103.559 103.887 103.494 103.93 103.364 103.952C103.256 103.952 103.191 103.92 103.17 103.855C103.018 102.664 102.596 101.766 101.903 101.16C101.211 100.532 100.302 100.218 99.1762 100.218H97.5204C96.568 100.218 95.9295 100.359 95.6048 100.64C95.2802 100.9 95.1178 101.42 95.1178 102.199V108.79H98.6892C99.793 108.79 100.605 108.606 101.124 108.238C101.644 107.848 101.903 107.253 101.903 106.452C101.903 106.409 101.957 106.387 102.066 106.387C102.196 106.387 102.261 106.409 102.261 106.452L102.228 109.179L102.261 110.64C102.304 111.333 102.325 111.874 102.325 112.264C102.325 112.307 102.261 112.328 102.131 112.328C102.001 112.328 101.936 112.307 101.936 112.264C101.936 111.333 101.665 110.651 101.124 110.218C100.605 109.764 99.7606 109.536 98.5918 109.536H95.1178V116.971C95.1178 117.75 95.2585 118.281 95.5399 118.562C95.8429 118.844 96.4381 118.984 97.3256 118.984H99.4359C100.67 118.984 101.687 118.627 102.488 117.913C103.31 117.177 103.873 116.138 104.176 114.796Z" fill="#D2B67E"/>
<path d="M112.617 116.971C112.617 117.664 112.704 118.173 112.877 118.497C113.05 118.8 113.375 119.017 113.851 119.147C114.349 119.276 115.139 119.341 116.221 119.341C116.286 119.341 116.318 119.406 116.318 119.536C116.318 119.666 116.286 119.731 116.221 119.731C115.334 119.731 114.641 119.72 114.143 119.698L111.319 119.666L109.078 119.698C108.667 119.72 108.104 119.731 107.39 119.731C107.347 119.731 107.325 119.666 107.325 119.536C107.325 119.406 107.347 119.341 107.39 119.341C108.169 119.341 108.732 119.287 109.078 119.179C109.446 119.071 109.695 118.865 109.825 118.562C109.955 118.237 110.02 117.75 110.02 117.101V102.069C110.02 101.42 109.955 100.943 109.825 100.64C109.695 100.337 109.446 100.132 109.078 100.024C108.732 99.8937 108.169 99.8288 107.39 99.8288C107.347 99.8288 107.325 99.7638 107.325 99.634C107.325 99.5041 107.347 99.4392 107.39 99.4392L109.078 99.4716C109.987 99.5149 110.723 99.5366 111.286 99.5366C111.806 99.5366 112.422 99.5041 113.137 99.4392C113.396 99.4392 113.797 99.4283 114.338 99.4067C114.901 99.3634 115.388 99.3418 115.799 99.3418C117.834 99.3418 119.468 99.7963 120.701 100.705C121.935 101.593 122.552 102.946 122.552 104.764C122.552 106.171 122.195 107.361 121.481 108.335C120.788 109.309 119.89 110.034 118.786 110.51C117.704 110.987 116.578 111.225 115.409 111.225C114.782 111.225 114.262 111.171 113.851 111.062C113.786 111.062 113.754 111.008 113.754 110.9C113.754 110.835 113.764 110.77 113.786 110.705C113.829 110.64 113.873 110.619 113.916 110.64C114.262 110.727 114.652 110.77 115.085 110.77C116.362 110.77 117.444 110.305 118.331 109.374C119.219 108.443 119.662 107.101 119.662 105.348C119.662 103.638 119.23 102.307 118.364 101.355C117.498 100.381 116.351 99.8937 114.922 99.8937C114.273 99.8937 113.786 99.9478 113.461 100.056C113.158 100.143 112.942 100.348 112.812 100.673C112.682 100.976 112.617 101.463 112.617 102.134V116.971Z" fill="#D2B67E"/>
<path d="M147.386 119.341C147.451 119.341 147.483 119.406 147.483 119.536C147.483 119.666 147.451 119.731 147.386 119.731C146.693 119.731 146.141 119.72 145.73 119.698L143.392 119.666L140.828 119.698C140.46 119.72 139.951 119.731 139.302 119.731C139.237 119.731 139.204 119.666 139.204 119.536C139.204 119.406 139.237 119.341 139.302 119.341C140.124 119.341 140.73 119.287 141.12 119.179C141.509 119.071 141.769 118.865 141.899 118.562C142.029 118.237 142.094 117.75 142.094 117.101V109.536H130.276V117.101C130.276 117.75 130.341 118.237 130.471 118.562C130.6 118.865 130.86 119.071 131.25 119.179C131.639 119.287 132.245 119.341 133.068 119.341C133.111 119.341 133.133 119.406 133.133 119.536C133.133 119.666 133.111 119.731 133.068 119.731C132.375 119.731 131.823 119.72 131.412 119.698L128.912 119.666L126.607 119.698C126.196 119.72 125.633 119.731 124.919 119.731C124.876 119.731 124.854 119.666 124.854 119.536C124.854 119.406 124.876 119.341 124.919 119.341C125.72 119.341 126.304 119.287 126.672 119.179C127.062 119.071 127.321 118.865 127.451 118.562C127.603 118.237 127.678 117.75 127.678 117.101V102.069C127.678 101.42 127.614 100.943 127.484 100.64C127.354 100.337 127.105 100.132 126.737 100.024C126.369 99.8937 125.785 99.8288 124.984 99.8288C124.919 99.8288 124.886 99.7638 124.886 99.634C124.886 99.5041 124.919 99.4392 124.984 99.4392L126.64 99.4716C127.549 99.5149 128.306 99.5366 128.912 99.5366C129.605 99.5366 130.449 99.5149 131.445 99.4716L133.068 99.4392C133.111 99.4392 133.133 99.5041 133.133 99.634C133.133 99.7638 133.111 99.8288 133.068 99.8288C132.267 99.8288 131.672 99.8937 131.282 100.024C130.893 100.153 130.622 100.381 130.471 100.705C130.341 101.008 130.276 101.485 130.276 102.134V108.79H142.094V102.134C142.094 101.485 142.018 101.008 141.866 100.705C141.737 100.381 141.477 100.153 141.087 100.024C140.719 99.8937 140.124 99.8288 139.302 99.8288C139.237 99.8288 139.204 99.7638 139.204 99.634C139.204 99.5041 139.237 99.4392 139.302 99.4392L140.828 99.4716C141.823 99.5149 142.678 99.5366 143.392 99.5366C143.998 99.5366 144.778 99.5149 145.73 99.4716L147.386 99.4392C147.451 99.4392 147.483 99.5041 147.483 99.634C147.483 99.7638 147.451 99.8288 147.386 99.8288C146.585 99.8288 146.001 99.8937 145.633 100.024C145.265 100.132 145.005 100.337 144.853 100.64C144.724 100.943 144.659 101.42 144.659 102.069V117.101C144.659 117.75 144.724 118.237 144.853 118.562C145.005 118.865 145.265 119.071 145.633 119.179C146.001 119.287 146.585 119.341 147.386 119.341Z" fill="#D2B67E"/>
<path d="M164.195 114.796C164.195 114.753 164.239 114.731 164.325 114.731C164.39 114.731 164.444 114.753 164.487 114.796C164.552 114.818 164.585 114.839 164.585 114.861C164.368 116.419 164.26 117.88 164.26 119.244C164.26 119.417 164.228 119.547 164.163 119.634C164.098 119.698 163.968 119.731 163.773 119.731H149.942C149.877 119.731 149.845 119.666 149.845 119.536C149.845 119.406 149.877 119.341 149.942 119.341C150.722 119.341 151.284 119.287 151.631 119.179C151.977 119.071 152.215 118.865 152.345 118.562C152.475 118.237 152.54 117.75 152.54 117.101V102.069C152.54 101.42 152.475 100.943 152.345 100.64C152.215 100.337 151.966 100.132 151.598 100.024C151.252 99.8937 150.7 99.8288 149.942 99.8288C149.877 99.8288 149.845 99.7638 149.845 99.634C149.845 99.5041 149.877 99.4392 149.942 99.4392H163.189C163.405 99.4392 163.513 99.5366 163.513 99.7314L163.578 103.822C163.578 103.887 163.513 103.93 163.384 103.952C163.275 103.952 163.21 103.92 163.189 103.855C163.037 102.664 162.615 101.766 161.923 101.16C161.23 100.532 160.321 100.218 159.195 100.218H157.54C156.587 100.218 155.949 100.359 155.624 100.64C155.299 100.9 155.137 101.42 155.137 102.199V108.79H158.708C159.812 108.79 160.624 108.606 161.143 108.238C161.663 107.848 161.923 107.253 161.923 106.452C161.923 106.409 161.977 106.387 162.085 106.387C162.215 106.387 162.28 106.409 162.28 106.452L162.247 109.179L162.28 110.64C162.323 111.333 162.345 111.874 162.345 112.264C162.345 112.307 162.28 112.328 162.15 112.328C162.02 112.328 161.955 112.307 161.955 112.264C161.955 111.333 161.685 110.651 161.143 110.218C160.624 109.764 159.78 109.536 158.611 109.536H155.137V116.971C155.137 117.75 155.278 118.281 155.559 118.562C155.862 118.844 156.457 118.984 157.345 118.984H159.455C160.689 118.984 161.706 118.627 162.507 117.913C163.33 117.177 163.892 116.138 164.195 114.796Z" fill="#D2B67E"/>
<path d="M192.733 119.341C192.777 119.341 192.798 119.406 192.798 119.536C192.798 119.666 192.777 119.731 192.733 119.731C192.041 119.731 191.489 119.72 191.078 119.698L188.772 119.666L186.597 119.698C186.229 119.72 185.721 119.731 185.071 119.731C185.006 119.731 184.974 119.666 184.974 119.536C184.974 119.406 185.006 119.341 185.071 119.341C186.024 119.341 186.662 119.233 186.987 119.017C187.333 118.8 187.506 118.346 187.506 117.653L187.474 117.101L186.857 102.816L179.682 119.504C179.638 119.59 179.552 119.634 179.422 119.634C179.292 119.634 179.206 119.59 179.162 119.504L171.078 102.946L170.818 115.997C170.797 117.144 171.002 117.989 171.435 118.53C171.868 119.071 172.571 119.341 173.545 119.341C173.61 119.341 173.643 119.406 173.643 119.536C173.643 119.666 173.61 119.731 173.545 119.731C172.961 119.731 172.507 119.72 172.182 119.698L170.396 119.666L168.611 119.698C168.307 119.72 167.864 119.731 167.279 119.731C167.236 119.731 167.214 119.666 167.214 119.536C167.214 119.406 167.236 119.341 167.279 119.341C169.076 119.341 169.985 118.227 170.007 115.997L170.299 101.452C169.606 100.37 168.675 99.8288 167.507 99.8288C167.463 99.8288 167.442 99.7638 167.442 99.634C167.442 99.5041 167.463 99.4392 167.507 99.4392L168.805 99.4716C169.065 99.4933 169.401 99.5041 169.812 99.5041C170.288 99.5041 170.678 99.4933 170.981 99.4716C171.284 99.45 171.522 99.4392 171.695 99.4392C171.976 99.4392 172.204 99.5366 172.377 99.7314C172.55 99.9262 172.82 100.392 173.188 101.127L180.396 115.77L187.182 100.251C187.398 99.7097 187.723 99.4392 188.156 99.4392C188.285 99.4392 188.459 99.45 188.675 99.4716C188.891 99.4933 189.173 99.5041 189.519 99.5041L191.175 99.4716C191.435 99.45 191.813 99.4392 192.311 99.4392C192.376 99.4392 192.409 99.5041 192.409 99.634C192.409 99.7638 192.376 99.8288 192.311 99.8288C191.251 99.8288 190.482 100.002 190.006 100.348C189.552 100.695 189.335 101.301 189.357 102.166L190.071 117.101C190.114 117.772 190.201 118.259 190.331 118.562C190.461 118.865 190.699 119.071 191.045 119.179C191.391 119.287 191.954 119.341 192.733 119.341Z" fill="#D2B67E"/>
<path d="M205.356 120.121C203.343 120.121 201.547 119.655 199.967 118.724C198.408 117.772 197.196 116.495 196.331 114.893C195.486 113.27 195.064 111.506 195.064 109.601C195.064 107.372 195.627 105.467 196.753 103.887C197.878 102.285 199.318 101.084 201.071 100.283C202.846 99.4825 204.653 99.082 206.493 99.082C208.549 99.082 210.356 99.569 211.915 100.543C213.473 101.495 214.664 102.762 215.486 104.342C216.33 105.922 216.752 107.599 216.752 109.374C216.752 111.344 216.233 113.151 215.194 114.796C214.155 116.441 212.759 117.74 211.006 118.692C209.274 119.644 207.391 120.121 205.356 120.121ZM206.493 119.406C207.878 119.406 209.123 119.049 210.226 118.335C211.33 117.621 212.196 116.582 212.824 115.218C213.473 113.833 213.798 112.188 213.798 110.283C213.798 108.27 213.441 106.474 212.726 104.894C212.034 103.314 211.027 102.08 209.707 101.192C208.408 100.305 206.893 99.8612 205.162 99.8612C202.911 99.8612 201.157 100.63 199.902 102.166C198.647 103.681 198.019 105.781 198.019 108.465C198.019 110.521 198.376 112.383 199.09 114.049C199.805 115.716 200.8 117.025 202.077 117.978C203.376 118.93 204.848 119.406 206.493 119.406Z" fill="#D2B67E"/>
<path d="M247.271 119.341C247.314 119.341 247.336 119.406 247.336 119.536C247.336 119.666 247.314 119.731 247.271 119.731H242.888C242.585 119.731 242.325 119.655 242.109 119.504C241.892 119.331 241.514 118.887 240.972 118.173C240.431 117.458 239.501 116.16 238.18 114.277L237.791 113.725C236.86 112.404 236.178 111.484 235.745 110.965C235.312 110.424 234.858 110.045 234.382 109.829C233.927 109.612 233.321 109.504 232.564 109.504H232.271V117.101C232.271 117.75 232.336 118.237 232.466 118.562C232.596 118.865 232.845 119.071 233.213 119.179C233.602 119.287 234.198 119.341 234.999 119.341C235.042 119.341 235.064 119.406 235.064 119.536C235.064 119.666 235.042 119.731 234.999 119.731C234.284 119.731 233.722 119.72 233.31 119.698L230.875 119.666L228.603 119.698C228.213 119.72 227.661 119.731 226.947 119.731C226.904 119.731 226.882 119.666 226.882 119.536C226.882 119.406 226.904 119.341 226.947 119.341C227.748 119.341 228.332 119.287 228.7 119.179C229.068 119.071 229.317 118.865 229.447 118.562C229.598 118.237 229.674 117.75 229.674 117.101V102.069C229.674 101.42 229.609 100.943 229.479 100.64C229.349 100.337 229.1 100.132 228.732 100.024C228.365 99.8937 227.78 99.8288 226.979 99.8288C226.936 99.8288 226.914 99.7638 226.914 99.634C226.914 99.5041 226.936 99.4392 226.979 99.4392L228.635 99.4716C229.544 99.5149 230.291 99.5366 230.875 99.5366C231.525 99.5366 232.347 99.5149 233.343 99.4716L234.999 99.4392C235.042 99.4392 235.064 99.5041 235.064 99.634C235.064 99.7638 235.042 99.8288 234.999 99.8288C234.219 99.8288 233.635 99.8937 233.245 100.024C232.877 100.153 232.618 100.381 232.466 100.705C232.336 101.008 232.271 101.485 232.271 102.134V108.984C233.44 108.941 234.165 108.919 234.447 108.919H234.869L238.635 103.692C239.566 102.415 240.031 101.452 240.031 100.803C240.031 100.153 239.522 99.8288 238.505 99.8288C238.462 99.8288 238.44 99.7638 238.44 99.634C238.44 99.5041 238.462 99.4392 238.505 99.4392L239.934 99.4716C240.799 99.5149 241.589 99.5366 242.304 99.5366C243.083 99.5366 243.884 99.5149 244.706 99.4716L245.94 99.4392C246.005 99.4392 246.037 99.5041 246.037 99.634C246.037 99.7638 246.005 99.8288 245.94 99.8288C244.879 99.8288 243.862 100.132 242.888 100.738C241.914 101.344 240.951 102.253 239.998 103.465L235.648 108.984C236.297 109.049 236.838 109.233 237.271 109.536C237.726 109.818 238.169 110.229 238.602 110.77C239.035 111.29 239.75 112.242 240.745 113.627C241.784 115.099 242.607 116.203 243.213 116.939C243.819 117.675 244.446 118.259 245.096 118.692C245.745 119.103 246.47 119.32 247.271 119.341Z" fill="#D2B67E"/>
<path d="M253.867 116.971C253.867 117.664 253.953 118.173 254.127 118.497C254.3 118.8 254.624 119.017 255.101 119.147C255.598 119.276 256.388 119.341 257.471 119.341C257.536 119.341 257.568 119.406 257.568 119.536C257.568 119.666 257.536 119.731 257.471 119.731C256.583 119.731 255.891 119.72 255.393 119.698L252.568 119.666L250.328 119.698C249.917 119.72 249.354 119.731 248.64 119.731C248.596 119.731 248.575 119.666 248.575 119.536C248.575 119.406 248.596 119.341 248.64 119.341C249.419 119.341 249.982 119.287 250.328 119.179C250.696 119.071 250.945 118.865 251.075 118.562C251.205 118.237 251.27 117.75 251.27 117.101V102.069C251.27 101.42 251.205 100.943 251.075 100.64C250.945 100.337 250.696 100.132 250.328 100.024C249.982 99.8937 249.419 99.8288 248.64 99.8288C248.596 99.8288 248.575 99.7638 248.575 99.634C248.575 99.5041 248.596 99.4392 248.64 99.4392L250.328 99.4716C251.237 99.5149 251.973 99.5366 252.536 99.5366C253.055 99.5366 253.672 99.5041 254.386 99.4392C254.646 99.4392 255.046 99.4283 255.588 99.4067C256.15 99.3634 256.637 99.3418 257.049 99.3418C259.083 99.3418 260.717 99.7963 261.951 100.705C263.185 101.593 263.802 102.946 263.802 104.764C263.802 106.171 263.445 107.361 262.73 108.335C262.038 109.309 261.139 110.034 260.036 110.51C258.953 110.987 257.828 111.225 256.659 111.225C256.031 111.225 255.512 111.171 255.101 111.062C255.036 111.062 255.003 111.008 255.003 110.9C255.003 110.835 255.014 110.77 255.036 110.705C255.079 110.64 255.122 110.619 255.166 110.64C255.512 110.727 255.901 110.77 256.334 110.77C257.611 110.77 258.694 110.305 259.581 109.374C260.468 108.443 260.912 107.101 260.912 105.348C260.912 103.638 260.479 102.307 259.613 101.355C258.748 100.381 257.601 99.8937 256.172 99.8937C255.523 99.8937 255.036 99.9478 254.711 100.056C254.408 100.143 254.192 100.348 254.062 100.673C253.932 100.976 253.867 101.463 253.867 102.134V116.971Z" fill="#D2B67E"/>
<path d="M286.401 119.341C286.487 119.341 286.531 119.406 286.531 119.536C286.531 119.666 286.487 119.731 286.401 119.731C285.99 119.731 285.329 119.709 284.42 119.666C283.555 119.623 282.916 119.601 282.505 119.601C282.007 119.601 281.39 119.623 280.654 119.666C279.918 119.709 279.366 119.731 278.998 119.731C278.912 119.731 278.869 119.666 278.869 119.536C278.869 119.406 278.912 119.341 278.998 119.341C279.734 119.341 280.265 119.276 280.589 119.147C280.914 118.995 281.076 118.735 281.076 118.367C281.076 117.999 280.914 117.491 280.589 116.841L276.953 109.309H270.979L268.317 115.445C268.014 116.16 267.862 116.755 267.862 117.231C267.862 118.638 268.912 119.341 271.012 119.341C271.12 119.341 271.174 119.406 271.174 119.536C271.174 119.666 271.12 119.731 271.012 119.731C270.622 119.731 270.059 119.709 269.323 119.666C268.501 119.623 267.787 119.601 267.181 119.601C266.618 119.601 265.947 119.623 265.168 119.666C264.475 119.709 263.912 119.731 263.479 119.731C263.393 119.731 263.349 119.666 263.349 119.536C263.349 119.406 263.393 119.341 263.479 119.341C264.085 119.341 264.594 119.222 265.005 118.984C265.438 118.746 265.849 118.335 266.239 117.75C266.629 117.166 267.072 116.3 267.57 115.153L274.486 99.2119C274.507 99.147 274.583 99.1145 274.713 99.1145C274.843 99.0929 274.918 99.1253 274.94 99.2119L282.765 115.283C283.501 116.863 284.128 117.934 284.648 118.497C285.167 119.06 285.752 119.341 286.401 119.341ZM271.271 108.562H276.596L273.804 102.718L271.271 108.562Z" fill="#D2B67E"/>
<path d="M299.593 99.082C300.589 99.082 301.617 99.1794 302.678 99.3742C303.738 99.5474 304.582 99.7963 305.21 100.121C305.383 100.208 305.491 100.305 305.535 100.413C305.6 100.5 305.654 100.662 305.697 100.9L306.054 104.829C306.054 104.894 306 104.937 305.892 104.959C305.784 104.959 305.719 104.926 305.697 104.861C305.134 103.173 304.214 101.917 302.937 101.095C301.66 100.251 300.124 99.8288 298.327 99.8288C296.747 99.8288 295.373 100.197 294.204 100.933C293.035 101.647 292.137 102.664 291.509 103.985C290.903 105.305 290.6 106.831 290.6 108.562C290.6 110.575 290.99 112.426 291.769 114.114C292.548 115.802 293.598 117.144 294.918 118.14C296.26 119.114 297.721 119.601 299.301 119.601C302.418 119.601 304.647 117.815 305.989 114.244C305.989 114.179 306.033 114.147 306.119 114.147C306.184 114.147 306.238 114.157 306.281 114.179C306.346 114.201 306.379 114.233 306.379 114.277L305.924 118.205C305.881 118.465 305.827 118.638 305.762 118.724C305.719 118.789 305.6 118.865 305.405 118.952C303.414 119.731 301.379 120.121 299.301 120.121C296.682 120.121 294.496 119.601 292.743 118.562C290.99 117.502 289.702 116.16 288.879 114.536C288.057 112.913 287.646 111.214 287.646 109.439C287.646 107.426 288.197 105.64 289.301 104.082C290.427 102.502 291.899 101.279 293.717 100.413C295.557 99.5257 297.515 99.082 299.593 99.082Z" fill="#D2B67E"/>
<path d="M327.903 99.4392C327.968 99.4392 328 99.5041 328 99.634C328 99.7638 327.968 99.8288 327.903 99.8288C327.318 99.8288 326.745 100.067 326.182 100.543C325.619 100.998 325.154 101.625 324.786 102.426L317.903 117.653C317.513 118.519 317.07 119.147 316.572 119.536C316.096 119.926 315.479 120.121 314.721 120.121C314.007 120.121 313.412 119.958 312.935 119.634C312.459 119.309 312.221 118.876 312.221 118.335C312.221 117.945 312.351 117.61 312.611 117.328C312.87 117.025 313.228 116.874 313.682 116.874C314.093 116.874 314.396 116.982 314.591 117.199C314.808 117.415 315.002 117.718 315.176 118.108C315.284 118.367 315.392 118.573 315.5 118.724C315.609 118.854 315.749 118.919 315.922 118.919C316.139 118.919 316.344 118.811 316.539 118.595C316.734 118.378 316.94 118.021 317.156 117.523L318.065 115.51L310.955 102.134C310.479 101.268 310.046 100.673 309.656 100.348C309.288 100.002 308.79 99.8288 308.163 99.8288C308.12 99.8288 308.098 99.7638 308.098 99.634C308.098 99.5041 308.12 99.4392 308.163 99.4392L309.332 99.4716C309.981 99.5149 310.641 99.5366 311.312 99.5366C312.329 99.5366 313.314 99.5149 314.267 99.4716C314.591 99.45 314.992 99.4392 315.468 99.4392C315.533 99.4392 315.565 99.5041 315.565 99.634C315.565 99.7638 315.533 99.8288 315.468 99.8288C314.061 99.8288 313.357 100.186 313.357 100.9C313.357 101.138 313.455 101.441 313.65 101.809L319.364 112.588L323.974 102.329C324.147 101.982 324.234 101.625 324.234 101.257C324.234 100.305 323.422 99.8288 321.799 99.8288C321.734 99.8288 321.701 99.7638 321.701 99.634C321.701 99.5041 321.734 99.4392 321.799 99.4392L323.162 99.4716C323.942 99.5149 324.634 99.5366 325.24 99.5366C325.63 99.5366 326.106 99.5149 326.669 99.4716L327.903 99.4392Z" fill="#D2B67E"/>
<path fill-rule="evenodd" clip-rule="evenodd" d="M156.177 29.6076L153.359 19.043C162.94 27.4947 171.91 17.3997 175.197 12C178.485 17.3997 187.455 27.4947 197.035 19.043L194.217 29.6076C190.93 27.7294 182.524 24.114 175.197 24.6775C167.871 24.114 159.465 27.7294 156.177 29.6076ZM158.318 38.9565C160.132 37.1424 162.646 36.2353 165.859 36.2353C167.777 36.2353 169.151 36.339 169.98 36.5463C170.809 36.7537 171.379 37.1942 171.69 37.868C172.001 38.49 172.157 39.5267 172.157 40.978V59.4345C169.823 61.8871 165.695 67.6555 166.373 72.7898C167.229 79.2734 168.686 80.9585 171.332 83.4285C170.943 83.9175 170.362 84.2634 169.591 84.4664C168.606 84.7255 167.051 84.8551 164.926 84.8551C164.771 84.8551 164.693 85.0106 164.693 85.3216C164.693 85.6326 164.771 85.7881 164.926 85.7881C166.792 85.7881 168.243 85.7622 169.28 85.7103L175.267 85.6326L181.409 85.7103C182.445 85.7622 183.871 85.7881 185.685 85.7881C185.789 85.7881 185.84 85.6326 185.84 85.3216C185.84 85.0106 185.789 84.8551 185.685 84.8551C183.508 84.8551 181.927 84.7255 180.942 84.4664C179.957 84.2072 179.284 83.7148 178.921 82.9892C178.61 82.2635 178.454 81.0973 178.454 79.4905V75.9301C179.764 75.8498 182.227 75.7267 184.117 75.7267C186.221 75.7267 186.823 74.6596 186.861 74.126V70.353C187.433 69.9719 188.256 69.141 187.89 68.8666C187.524 68.5922 186.899 67.9138 186.632 67.6089C187.318 67.3421 188.53 66.74 187.89 66.4656C187.25 66.1912 186.785 65.3603 186.632 64.9792C188.7 63.6354 188.524 63.2262 188.387 62.9065L188.387 62.9064C188.372 62.8726 188.358 62.8397 188.347 62.8069C188.256 62.5325 186.785 61.3967 186.061 60.8632C185.337 60.1009 184.048 58.4164 184.689 57.7761C185.329 57.1359 185.26 55.8324 185.146 55.2608C184.872 52.8826 181.754 49.1629 180.23 47.6003C179.772 52.2652 178.82 55.1083 178.4 55.9468C177.486 57.9667 174.97 62.9669 172.226 66.8086C169.537 70.573 171.02 76.1087 172.157 78.553V79.4905C172.157 80.5222 172.077 81.3827 171.917 82.0722C170.983 81.4431 169.3 78.9235 168.743 72.7898C168.4 69.0236 170.117 65.5884 172.157 63.1068V63.1686C174.726 59.5158 177.316 55.3098 178.454 50.4682V41.1334C178.454 39.6303 178.61 38.5678 178.921 37.9458C179.232 37.272 179.802 36.8314 180.631 36.6241C181.461 36.3649 182.834 36.2353 184.752 36.2353C188.121 36.2353 190.661 37.1165 192.371 38.8788C194.082 40.641 195.118 43.5177 195.481 47.5088C195.481 47.6124 195.611 47.6643 195.87 47.6643C196.181 47.6643 196.336 47.6124 196.336 47.5088C196.336 45.5392 196.414 42.9476 196.57 39.734C196.777 36.5204 196.958 34.188 197.114 32.7367C197.114 32.5294 196.958 32.4257 196.647 32.4257C196.388 32.4257 196.233 32.5294 196.181 32.7367C195.922 33.5142 195.351 34.0325 194.47 34.2916C193.589 34.5508 192.19 34.6804 190.272 34.6804L184.985 34.7581C181.564 34.8618 178.325 34.9136 175.267 34.9136C169.254 34.9136 164.045 34.8359 159.639 34.6804C156.789 34.6804 155.363 34.1102 155.363 32.9699C155.363 32.7108 155.208 32.5812 154.897 32.5812C154.586 32.5812 154.43 32.7108 154.43 32.9699C154.43 34.6286 154.301 37.0906 154.042 40.356C153.782 43.6214 153.549 46.0056 153.342 47.5088C153.342 47.6124 153.471 47.6643 153.731 47.6643C154.042 47.6643 154.223 47.6124 154.275 47.5088C155.156 43.5695 156.504 40.7188 158.318 38.9565Z" fill="#D2B67E"/>
</svg>
