<svg width="74" height="87" viewBox="0 0 74 87" fill="none" xmlns="http://www.w3.org/2000/svg">
<g clip-path="url(#clip0_225_8)">
<path d="M16.6479 49.7389C12.9145 49.2935 8.97637 48.2777 6.11993 45.6897C4.83914 44.4296 3.83799 42.9139 3.18161 41.2414C2.52522 39.5688 2.22831 37.7768 2.31018 35.9819L2.35993 34.3623C2.36803 33.9122 2.4629 33.387 2.50686 32.9034C3.70196 26.9013 8.32965 23.0834 11.6836 18.2845C11.9505 17.9245 12.1988 17.5511 12.4275 17.1658C14.6846 13.8026 14.9287 8.97245 13.7556 5.18237C14.0943 7.50706 13.9111 9.878 13.2193 12.1231C12.5275 14.3681 11.3445 16.431 9.75613 18.1619C5.83879 22.5721 1.51075 26.5068 0.269372 32.5251C0.203428 33.1116 0.0958346 33.6519 0.0715393 34.2824L0.000966071 35.9021C-0.127419 39.65 1.15627 43.3095 3.59784 46.1559C6.13392 48.6865 9.44198 50.2984 12.9978 50.7362C14.771 54.4709 16.1023 58.3998 16.9649 62.4431C17.1683 63.4181 17.3228 64.4027 17.4277 65.3932C17.5368 66.3762 17.587 67.3648 17.5781 68.3538C17.607 69.3337 17.489 70.2847 17.4312 71.2172C17.1928 73.1839 16.9834 75.16 16.7451 77.1302C16.7166 78.6609 16.454 80.1782 15.9665 81.6295C16.8852 80.4359 17.5338 79.0571 17.8673 77.5883C18.5082 75.609 19.0336 73.5941 19.4407 71.5538C19.5179 71.0448 19.5973 70.5284 19.6791 70.0047C19.7728 69.477 19.8173 68.9418 19.8121 68.4058C19.8517 67.3172 19.8231 66.2272 19.7265 65.1422C19.5837 64.0697 19.3868 63.0051 19.1365 61.9525C18.9229 60.9317 18.613 59.9334 18.2109 58.9711C17.1384 55.9844 15.531 53.2178 13.4675 50.8067C18.1203 51.4393 22.855 51.0549 27.3448 49.6799C23.791 50.1229 20.1972 50.1427 16.6387 49.7389C15.0699 49.5503 19.8121 50.0964 16.6479 49.7389Z" fill="#E8C981"/>
<path d="M8.42424 33.2134C3.51773 33.2134 3.51195 40.8306 8.42424 40.8306C13.3365 40.8306 13.3307 33.2134 8.42424 33.2134ZM8.42424 38.5167C8.03798 38.5015 7.67261 38.3374 7.4047 38.0587C7.13679 37.7801 6.98716 37.4085 6.98716 37.022C6.98716 36.6354 7.13679 36.2639 7.4047 35.9852C7.67261 35.7066 8.03798 35.5424 8.42424 35.5272C8.81049 35.5424 9.17587 35.7066 9.44377 35.9852C9.71168 36.2639 9.86131 36.6354 9.86131 37.022C9.86131 37.4085 9.71168 37.7801 9.44377 38.0587C9.17587 38.3374 8.81049 38.5015 8.42424 38.5167V38.5167Z" fill="#E8C981"/>
<path d="M73.4581 32.5309C72.2156 26.5149 67.8875 22.5813 63.9713 18.1677C62.384 16.4363 61.2015 14.3737 60.5096 12.129C59.8177 9.88434 59.6336 7.5139 59.9707 5.18933C59.3292 7.16563 59.1158 9.25585 59.3446 11.321C59.5734 13.3862 60.2392 15.379 61.2977 17.1669C61.5264 17.5523 61.7747 17.9257 62.0416 18.2857C65.3967 23.0858 70.0244 26.9024 71.2183 32.9046C71.2623 33.3881 71.3571 33.9134 71.3652 34.3634L71.415 35.9831C71.5185 38.9451 70.6417 41.8584 68.9207 44.2713C67.0876 46.476 64.6119 48.0534 61.8391 48.7833C56.7991 50.1389 51.5345 50.4456 46.3711 49.6845C50.8614 51.0566 55.5955 51.441 60.2484 50.8114C58.1852 53.2227 56.5779 55.9892 55.505 58.9758C55.1029 59.9381 54.793 60.9364 54.5795 61.9572C54.3292 63.0098 54.1323 64.0743 53.9894 65.1468C53.8928 66.2318 53.8642 67.3219 53.9038 68.4105C53.898 68.9464 53.9426 69.4817 54.0369 70.0094C54.114 70.5323 54.1934 71.0487 54.2752 71.5585C54.6829 73.5986 55.2082 75.6135 55.8486 77.593C56.1815 79.062 56.8301 80.441 57.7494 81.6341C57.2611 80.1831 56.9985 78.6656 56.9708 77.1348C56.7325 75.1681 56.5231 73.192 56.2848 71.2218C56.2281 70.2893 56.1089 69.3383 56.1378 68.3584C56.1289 67.3695 56.1791 66.3808 56.2882 65.3979C56.393 64.4074 56.5475 63.4227 56.751 62.4477C57.613 58.4043 58.9444 54.4753 60.7181 50.7408C64.2739 50.3031 67.582 48.6912 70.1181 46.1606C72.5597 43.3142 73.8434 39.6547 73.7149 35.9068L73.6444 34.2871C73.6212 33.6566 73.5136 33.1163 73.4477 32.5297C73.2233 31.3878 73.524 33.1093 73.4581 32.5309Z" fill="#E8C981"/>
<path d="M65.0926 40.8306C69.9991 40.8306 70.0049 33.2134 65.0926 33.2134C60.1803 33.2134 60.185 40.8306 65.0926 40.8306ZM65.0926 35.5272C65.4789 35.5424 65.8443 35.7066 66.1122 35.9852C66.3801 36.2639 66.5297 36.6354 66.5297 37.022C66.5297 37.4085 66.3801 37.7801 66.1122 38.0587C65.8443 38.3374 65.4789 38.5015 65.0926 38.5167C64.7064 38.5015 64.341 38.3374 64.0731 38.0587C63.8052 37.7801 63.6556 37.4085 63.6556 37.022C63.6556 36.6354 63.8052 36.2639 64.0731 35.9852C64.341 35.7066 64.7064 35.5424 65.0926 35.5272V35.5272Z" fill="#E8C981"/>
</g>
<defs>
<clipPath id="clip0_225_8">
<rect width="73.726" height="86.813" fill="white"/>
</clipPath>
</defs>
</svg>
