<svg width="90" height="17" viewBox="0 0 90 17" fill="none" xmlns="http://www.w3.org/2000/svg">
<path d="M58.2458 9.25652L52.554 1.81514C51.8558 0.90437 50.8026 0.372661 49.6861 0.372661H44.055V7.36883C44.055 9.60505 42.5445 11.4698 40.4696 11.4698C38.3729 11.4698 36.8623 9.60505 36.8623 7.36883V0.372661H31.2483C30.2656 0.372661 29.4677 1.20711 29.4677 2.23491V9.25397L23.3356 1.23764C22.9172 0.690669 22.2823 0.370117 21.611 0.370117C20.3899 0.370117 19.4023 1.40555 19.4023 2.68012V12.9149C19.4023 13.8587 20.1345 14.6245 21.0369 14.6245C21.9394 14.6245 22.6715 13.8587 22.6715 12.9149V6.0968L28.9764 14.0139C29.2877 14.4031 29.7475 14.6296 30.234 14.6296H31.1023C32.0048 14.6296 32.7369 13.8638 32.7369 12.92V3.79442H33.5275V7.36883C33.5275 11.9532 36.5899 15.001 40.4696 15.001C44.3275 15.001 47.3899 11.9532 47.3899 7.36883V3.79442H48.1804V12.9174C48.1804 13.8613 48.9126 14.627 49.815 14.627C50.7175 14.627 51.4496 13.8613 51.4496 12.9174V6.0968L57.7545 14.0139C58.0658 14.4031 58.5256 14.6296 59.0121 14.6296H59.8804C60.7829 14.6296 61.515 13.8638 61.515 12.92V2.08227C61.515 1.13842 60.7829 0.372661 59.8804 0.372661C58.978 0.372661 58.2458 1.13842 58.2458 2.08227V9.25652Z" fill="#303030"/>
<path d="M69.7806 0.010515C65.6187 -0.215906 62.2012 3.24401 62.2012 7.52312C62.2012 11.6674 65.4095 15.023 69.3939 15.023C73.5339 15.023 76.8517 11.3596 76.5476 6.96088C76.2874 3.22366 73.3587 0.203863 69.7806 0.010515ZM69.5155 11.731C67.2144 11.8022 65.3463 9.8891 65.3463 7.52058C65.3463 5.19531 67.1487 3.28726 69.3939 3.28726C71.712 3.28726 73.5752 5.36321 73.4098 7.82332C73.2663 9.95779 71.5587 11.6699 69.5155 11.731Z" fill="#303030"/>
<path d="M89.3276 0.950698L89.3252 0.948154C88.5954 0.184936 87.4108 0.190024 86.686 0.95833L83.1541 4.70319L79.5127 0.960874C78.7854 0.21292 77.6154 0.218009 76.893 0.973595L76.8881 0.978683C76.1584 1.7419 76.1633 2.98086 76.8979 3.73899L80.5003 7.45586L76.8736 11.2643C76.1511 12.025 76.1511 13.2538 76.876 14.0119L76.8906 14.0272C77.613 14.7828 78.7854 14.7878 79.5127 14.0373L83.1541 10.2798L86.686 14.0246C87.4108 14.7929 88.5954 14.798 89.3252 14.0348C90.05 13.2767 90.0525 12.0504 89.33 11.2898L85.7422 7.5042L89.3349 3.69574C90.0549 2.93252 90.05 1.70628 89.3276 0.950698Z" fill="#303030"/>
<path d="M5.50703 10.9269C5.50703 11.9674 5.27838 12.8019 4.82108 13.4328C4.36379 14.0637 3.75081 14.3792 2.98216 14.3792C2.16 14.3792 1.52513 14.0764 1.07513 13.4684L1.02162 14.2545H0V4.59473H1.11162V8.19712C1.56162 7.61453 2.17946 7.32196 2.97 7.32196C3.76054 7.32196 4.38081 7.63488 4.83081 8.25817C5.28081 8.88401 5.50703 9.73882 5.50703 10.8251V10.9269ZM4.39298 10.7946C4.39298 10.0034 4.24703 9.39028 3.95514 8.95779C3.66325 8.5253 3.24243 8.30906 2.6927 8.30906C1.95811 8.30906 1.4327 8.66522 1.11162 9.37756V12.321C1.45216 13.0334 1.98243 13.3895 2.70487 13.3895C3.23757 13.3895 3.65352 13.1733 3.95027 12.7408C4.2446 12.3134 4.39298 11.6647 4.39298 10.7946Z" fill="#303030"/>
<path d="M8.96951 12.5506L10.4849 7.44981H11.6744L9.05951 15.3033C8.65572 16.4354 8.01113 17.0002 7.13059 17.0002L6.91897 16.9824L6.50302 16.901V15.9571L6.80464 15.9826C7.18167 15.9826 7.476 15.9037 7.68518 15.7434C7.89437 15.5832 8.06951 15.2931 8.20573 14.8683L8.4514 14.1763L6.13086 7.44727H7.34464L8.96951 12.5506Z" fill="#303030"/>
</svg>
