<svg width="52" height="87" viewBox="0 0 52 87" fill="none" xmlns="http://www.w3.org/2000/svg">
<g clip-path="url(#clip0_225_16)">
<path d="M5.40823 77.7326C5.26167 76.1114 5.46607 74.4777 6.00752 72.9425C6.22846 72.1301 6.49493 71.3307 6.80564 70.5482L7.30412 69.351L7.50435 68.7517V68.1524C7.50454 68.1393 7.50209 68.1263 7.49717 68.1141C7.49224 68.102 7.48492 68.091 7.47565 68.0817C7.46638 68.0724 7.45535 68.0651 7.4432 68.0602C7.43105 68.0552 7.41804 68.0528 7.40493 68.053C7.50435 68.053 7.50435 68.1524 7.40493 68.2532V68.3526C7.30552 68.4521 7.30552 68.5529 7.2047 68.6523L6.80564 69.1508C5.9783 70.1978 5.2736 71.3361 4.70533 72.5435C3.86946 74.2449 3.52377 76.1455 3.70698 78.0323C3.78545 78.9978 4.02197 79.9439 4.40708 80.8327C4.78677 81.6995 5.29103 82.5061 5.90391 83.2271C7.07168 84.6246 8.58581 85.6912 10.295 86.3201C9.05948 85.1462 7.95524 83.8415 7.00167 82.429C6.1041 81.0128 5.55779 79.4026 5.40823 77.7326Z" fill="#E8C981"/>
<path d="M47.812 73.1428C47.4713 71.1127 46.8674 69.1358 46.0155 67.2619C44.4193 63.4701 42.4226 59.9808 40.5267 56.4803L37.2334 50.1933C36.5333 48.6965 35.8332 47.2991 35.1331 45.8023C33.3902 42.2615 32.02 38.5492 31.0445 34.7252C30.1317 30.9045 29.7622 26.9742 29.9467 23.0503C30.5717 15.0853 32.5649 7.28777 35.8388 0C31.7975 7.04888 29.2817 14.8679 28.4541 22.9508C28.0694 27.0252 28.3389 31.135 29.2522 35.1243C30.2555 39.0706 31.6252 42.9145 33.3437 46.606C34.5408 49.4064 35.9382 52.0948 37.3357 54.7888L38.8325 57.4828C40.8278 60.9749 42.8245 64.3676 44.5201 67.9606C45.3757 69.7152 46.0445 71.5549 46.5154 73.4494C46.9642 75.3187 46.9642 77.2677 46.5154 79.1371C46.0584 81.0111 44.9652 82.6685 43.4224 83.8263C41.8127 85.0173 40.0716 86.0194 38.2332 86.813C40.1815 86.2721 42.0335 85.4303 43.722 84.3178C45.4809 83.1637 46.7857 81.4359 47.4144 79.4283C48.0911 77.4033 48.2282 75.2369 47.812 73.1428V73.1428Z" fill="#E8C981"/>
<path d="M39.1308 81.0246C38.8167 80.849 38.4811 80.7149 38.1325 80.6255C37.1458 80.4569 36.1355 80.4846 35.1595 80.7071C34.1835 80.9296 33.261 81.3425 32.4448 81.9221V81.9221L32.3454 82.0215C32.1452 82.1209 32.0458 82.3212 31.9464 82.4206C31.6725 82.7753 31.3724 83.109 31.0488 83.4189C30.5964 83.8734 30.0953 84.2767 29.5548 84.6217C28.5315 85.3279 27.3046 85.6786 26.0627 85.6201C24.7801 85.4748 23.5495 85.0307 22.4697 84.3235C21.4722 83.7132 20.5345 83.0099 19.6693 82.2232C18.7162 81.3862 17.5538 80.8236 16.3061 80.5952C15.0583 80.3669 13.772 80.4814 12.5843 80.9266C11.8712 81.2673 11.255 81.7815 10.792 82.422C11.6895 82.8011 12.6299 83.0691 13.5924 83.2201C16.187 83.6192 19.4733 83.4203 19.7785 82.7216C20.4072 83.5499 21.1458 84.2885 21.9741 84.9172C23.0855 85.8377 24.4343 86.4255 25.8652 86.6128H26.963C27.3185 86.4981 27.6876 86.4307 28.0608 86.4126C28.7556 86.168 29.3986 85.7956 29.9567 85.3148C30.5248 84.8811 31.0008 84.3384 31.3569 83.7186C31.5605 83.4418 31.728 83.1402 31.8553 82.8211C32.3538 83.5212 35.5477 83.7186 38.0415 83.3195C38.97 83.1701 39.8754 82.9018 40.7355 82.5214C40.4157 81.8327 39.8401 81.2957 39.1308 81.0246Z" fill="#E8C981"/>
</g>
<defs>
<clipPath id="clip0_225_16">
<rect width="51.702" height="86.813" fill="white"/>
</clipPath>
</defs>
</svg>
